<?xml version="1.0" encoding="UTF-8" standalone="no"?>
<!-- Created with Inkscape (http://www.inkscape.org/) -->

<svg
   xmlns:dc="http://purl.org/dc/elements/1.1/"
   xmlns:cc="http://creativecommons.org/ns#"
   xmlns:rdf="http://www.w3.org/1999/02/22-rdf-syntax-ns#"
   xmlns:svg="http://www.w3.org/2000/svg"
   xmlns="http://www.w3.org/2000/svg"
   xmlns:sodipodi="http://sodipodi.sourceforge.net/DTD/sodipodi-0.dtd"
   xmlns:inkscape="http://www.inkscape.org/namespaces/inkscape"
   width="54.44067mm"
   height="54.443562mm"
   viewBox="0 0 54.44067 54.443562"
   version="1.1"
   id="svg3734"
   inkscape:version="0.92.2 (5c3e80d, 2017-08-06)"
   sodipodi:docname="MMRlogo.svg">
  <defs
     id="defs3728" />
  <sodipodi:namedview
     id="base"
     pagecolor="#ffffff"
     bordercolor="#666666"
     borderopacity="1.0"
     inkscape:pageopacity="0.0"
     inkscape:pageshadow="2"
     inkscape:zoom="7.9195959"
     inkscape:cx="118.72428"
     inkscape:cy="105.10433"
     inkscape:document-units="mm"
     inkscape:current-layer="g3747"
     showgrid="false"
     fit-margin-top="0"
     fit-margin-left="0"
     fit-margin-right="0"
     fit-margin-bottom="0"
     inkscape:window-width="3840"
     inkscape:window-height="2055"
     inkscape:window-x="-13"
     inkscape:window-y="-13"
     inkscape:window-maximized="1" />
  <metadata
     id="metadata3731">
    <rdf:RDF>
      <cc:Work
         rdf:about="">
        <dc:format>image/svg+xml</dc:format>
        <dc:type
           rdf:resource="http://purl.org/dc/dcmitype/StillImage" />
        <dc:title />
      </cc:Work>
    </rdf:RDF>
  </metadata>
  <g
     inkscape:label="Layer 1"
     inkscape:groupmode="layer"
     id="layer1"
     transform="translate(-320.47051,-299.36098)">
    <g
       id="g3747"
       transform="translate(15.071801,-2.7403273)">
      <path
         style="fill:none;stroke-width:0.08466667;stroke:none"
         d="m 305.39871,325.7262 v -23.62489 h 27.22033 27.22034 v 23.62489 30.81867 h -27.22034 -27.22033 z"
         id="path3763"
         inkscape:connector-curvature="0"
         sodipodi:nodetypes="ccccccccc" />
      <path
         style="fill:#a1a1a1;stroke-width:0.08466667"
         d="m 330.03671,356.41689 c -9.0382,-0.63515 -17.61488,-6.48335 -21.78933,-14.85754 -2.35671,-4.72769 -3.16769,-9.18032 -2.72187,-14.94415 0.39077,-5.05206 2.47149,-10.18098 5.83996,-14.39538 0.90326,-1.13009 3.00134,-3.2225 4.15091,-4.13967 4.21344,-3.36168 9.13535,-5.35636 14.55081,-5.89695 1.47357,-0.14709 5.03483,-0.0586 6.44919,0.16035 8.36244,1.29425 15.3881,6.0571 19.67065,13.33519 1.59,2.70216 2.69191,5.74738 3.28358,9.07449 0.21749,1.22303 0.2259,1.3866 0.2306,4.48664 0.005,3.46615 -0.0339,3.93308 -0.50782,6.05366 -1.95534,8.74931 -8.19474,16.05139 -16.5604,19.38092 -2.59485,1.03275 -4.90404,1.55795 -7.68561,1.74799 -2.02,0.13801 -2.88164,0.13703 -4.91067,-0.006 z m 5.41867,-1.95061 c 5.70262,-0.65382 10.89377,-3.15169 14.94747,-7.19241 2.0958,-2.0891 3.58408,-4.16001 4.86771,-6.77334 1.89832,-3.86477 2.72997,-7.6932 2.59331,-11.938 -0.12657,-3.93123 -0.98183,-7.27231 -2.75251,-10.75267 -1.1896,-2.33822 -2.73215,-4.45574 -4.62681,-6.35142 -2.04516,-2.04625 -4.11382,-3.52032 -6.77417,-4.82709 -2.42944,-1.19335 -4.73355,-1.91844 -7.45067,-2.34471 -1.02312,-0.16051 -1.52714,-0.18596 -3.683,-0.18596 -2.17428,0 -2.65545,0.0247 -3.71629,0.19078 -8.26304,1.29362 -15.19443,6.33471 -18.8811,13.73194 -1.84133,3.69461 -2.66247,7.17999 -2.66247,11.30113 0,2.43899 0.19524,4.00366 0.79421,6.36489 1.7508,6.90192 6.53308,12.87164 12.9285,16.13866 2.83787,1.44969 5.89465,2.36672 8.91248,2.67374 1.24352,0.12651 4.25985,0.10703 5.50334,-0.0355 z m -5.50038,-2.79057 c -2.50759,-0.33585 -5.00788,-1.08853 -7.15729,-2.15461 -4.46156,-2.21289 -7.88232,-5.64736 -10.08083,-10.12123 -1.56175,-3.17809 -2.25721,-6.21341 -2.2503,-9.82134 0.007,-3.61595 0.70149,-6.58716 2.29593,-9.82133 1.11067,-2.25292 2.51103,-4.15912 4.41613,-6.01134 3.47991,-3.38332 7.55071,-5.38847 12.3924,-6.1041 1.91361,-0.28284 4.76976,-0.24124 6.77334,0.0987 5.96891,1.0126 11.2851,4.44493 14.67814,9.47678 1.94729,2.88779 3.07428,5.81403 3.62582,9.41449 0.2017,1.31662 0.20049,4.62983 -0.002,5.95251 -0.64312,4.19759 -2.1337,7.676 -4.66194,10.87904 -0.9362,1.18608 -2.70179,2.91177 -3.90321,3.81499 -3.03418,2.28109 -6.13624,3.61075 -9.99066,4.28238 -1.32806,0.23142 -4.78298,0.29623 -6.13538,0.1151 z m 12.06204,-4.69818 c 0,-0.18362 -0.33031,-0.15832 -0.3662,0.0281 -0.0232,0.12023 0.0146,0.14874 0.16817,0.127 0.10892,-0.0154 0.19803,-0.0852 0.19803,-0.15505 z m 6.02524,-12.74802 c 0.0706,-0.18389 -0.10858,-0.35683 -0.23681,-0.2286 -0.10838,0.10837 -0.0412,0.36129 0.0959,0.36129 0.0495,0 0.11289,-0.0597 0.1409,-0.13269 z m -29.77424,-3.71465 c 0,-3.07253 0.0306,-3.40602 0.2808,-3.05726 0.0551,0.0768 0.64982,1.20707 1.32157,2.51166 1.31575,2.55526 1.36409,2.61799 2.01293,2.61194 0.61136,-0.006 0.66197,-0.0735 2.03001,-2.71907 0.70673,-1.36671 1.33538,-2.48493 1.397,-2.48493 0.0905,0 0.1163,0.59815 0.13424,3.1115 l 0.0222,3.1115 h 0.88795 0.88796 v -4.78367 -4.78366 h -1.04797 c -0.73559,0 -1.07386,0.0315 -1.13484,0.10583 -0.0478,0.0582 -0.7643,1.43933 -1.59226,3.06917 -0.82795,1.62983 -1.54851,2.96333 -1.60124,2.96333 -0.0527,0 -0.77362,-1.3335 -1.60198,-2.96333 -0.82835,-1.62984 -1.54488,-3.01096 -1.59227,-3.06917 -0.0605,-0.0743 -0.39817,-0.10583 -1.13414,-0.10583 h -1.04797 v 4.78366 4.78367 h 0.889 0.889 z m 12.74911,-0.0425 c 0.005,-2.12015 0.0352,-3.09503 0.0978,-3.11588 0.0899,-0.03 0.30962,0.36596 1.92181,3.46321 0.68242,1.31102 0.86472,1.59735 1.07153,1.68302 0.33032,0.13682 0.98673,0.0578 1.1789,-0.14198 0.0833,-0.0866 0.63842,-1.11 1.23352,-2.27417 1.17299,-2.29465 1.43215,-2.75166 1.56038,-2.75166 0.0535,0 0.0836,1.12719 0.0836,3.13266 v 3.13267 h 0.93204 0.93204 l -0.0219,-4.7625 -0.0219,-4.7625 -1.06711,-0.0236 c -0.78838,-0.0174 -1.08976,0.005 -1.15384,0.0847 -0.0477,0.0596 -0.76065,1.4513 -1.58433,3.09277 -0.82367,1.64148 -1.5427,2.98406 -1.59782,2.98352 -0.0551,-5.1e-4 -0.74793,-1.30037 -1.53956,-2.88851 -0.79164,-1.58814 -1.50878,-2.97835 -1.59365,-3.08935 -0.14798,-0.19355 -0.19745,-0.20182 -1.2065,-0.20182 h -1.05219 v 4.78653 4.78653 l 0.91017,-0.024 0.91017,-0.024 0.007,-3.08554 z m 13.00904,1.3287 0.0229,-1.79916 0.40949,-0.0261 c 0.25864,-0.0165 0.47994,0.0201 0.60071,0.0992 0.10516,0.0689 0.58289,0.81507 1.0616,1.65813 0.47872,0.84307 0.96602,1.60806 1.08289,1.69999 0.18748,0.14747 0.34563,0.16714 1.34406,0.16714 0.62237,0 1.13159,-0.0183 1.13159,-0.0407 0,-0.0224 -0.47835,-0.82141 -1.063,-1.77555 -0.6238,-1.01804 -1.16601,-1.80817 -1.31233,-1.91235 -0.33163,-0.23615 -0.31432,-0.38326 0.0682,-0.57933 0.4671,-0.23945 0.94583,-0.7514 1.19695,-1.28002 0.29771,-0.62669 0.31761,-1.77892 0.0411,-2.37824 -0.34648,-0.75089 -0.97144,-1.20015 -2.06351,-1.48339 -0.43611,-0.11312 -0.97208,-0.14453 -2.58233,-0.15139 l -2.032,-0.009 -0.0219,4.80484 -0.0219,4.80483 h 1.05734 1.05735 z m 0.0864,-3.29002 c -0.0758,-0.0783 -0.10583,-0.49805 -0.10583,-1.47904 0,-1.12356 0.0232,-1.38894 0.12898,-1.47675 0.19937,-0.16546 1.42953,-0.0393 1.89862,0.19475 0.56455,0.28167 0.72418,0.55339 0.7235,1.23157 -7.7e-4,0.72197 -0.21892,1.1067 -0.78229,1.37942 -0.4794,0.23208 -1.68927,0.32952 -1.86298,0.15005 z m -16.57717,-9.32831 c 0.0534,-0.24807 0.31324,-0.39917 0.68652,-0.39917 0.11338,0 0.20615,-0.0381 0.20615,-0.0847 0,-0.0466 -0.0928,-0.0847 -0.20615,-0.0847 -0.37328,0 -0.63315,-0.1511 -0.68652,-0.39917 -0.11573,-0.53792 -0.18103,-0.59475 -0.2461,-0.2142 -0.0693,0.40507 -0.29274,0.61337 -0.65807,0.61337 -0.34927,0 -0.28465,0.13978 0.0925,0.20009 0.393,0.0628 0.48406,0.15969 0.56692,0.60299 0.0516,0.27636 0.0749,0.307 0.12853,0.16934 0.036,-0.0924 0.0883,-0.27421 0.11621,-0.40392 z m 10.38803,-6.12946 c 0.0517,-0.0623 0.24142,-0.1368 0.42164,-0.16562 0.37716,-0.0603 0.44179,-0.20009 0.0925,-0.20009 -0.36061,0 -0.60377,-0.21812 -0.66415,-0.59574 -0.0572,-0.35761 -0.20136,-0.37815 -0.20136,-0.0287 0,0.36068 -0.15056,0.53477 -0.51255,0.59266 -0.38475,0.0615 -0.5358,0.20111 -0.21762,0.20111 0.377,0 0.63784,0.15018 0.69334,0.39918 0.12542,0.56263 0.14857,0.58782 0.22283,0.24245 0.0393,-0.18262 0.11368,-0.38298 0.16536,-0.44525 z m -3.35702,-0.20227 c 0,-0.0653 -0.0667,-0.13163 -0.14817,-0.14732 -0.14594,-0.0281 -0.20628,0.15155 -0.09,0.26787 0.0887,0.0888 0.23813,0.0131 0.23813,-0.12055 z m -2.49767,-0.6341 c 0,-0.0671 -0.0572,-0.12201 -0.127,-0.12201 -0.12753,0 -0.17405,0.17873 -0.0729,0.27993 0.079,0.079 0.19986,-0.0165 0.19986,-0.15792 z"
         id="path3761"
         inkscape:connector-curvature="0" />
      <path
         style="fill:#dd372b;stroke-width:0.08466667"
         d="m 329.52871,356.32532 c -7.44615,-0.89265 -14.04002,-4.63657 -18.52989,-10.52108 -2.97844,-3.9036 -4.73034,-8.23973 -5.40062,-13.36711 -0.19442,-1.48723 -0.19358,-4.74161 0.002,-6.24526 0.77123,-5.94107 3.11315,-11.02084 7.05806,-15.30939 3.67121,-3.99102 8.63821,-6.85734 13.95529,-8.05324 2.47523,-0.55672 5.85865,-0.78661 8.30735,-0.56445 6.4531,0.58546 12.25962,3.28085 16.79707,7.7972 4.37281,4.35248 6.97847,9.64192 7.84155,15.91821 0.21016,1.52821 0.20953,5.12887 -0.001,6.68867 -0.85917,6.36079 -3.67266,11.9722 -8.14238,16.2397 -4.43238,4.23185 -9.8023,6.73702 -15.91789,7.426 -1.38127,0.15561 -4.63583,0.15057 -5.969,-0.009 z m 6.70666,-1.8452 c 6.09984,-1.00743 10.99046,-3.597 15.04281,-7.96514 3.50871,-3.78214 5.70246,-8.44021 6.50098,-13.80378 0.23349,-1.56833 0.21224,-5.41639 -0.0388,-7.02733 -0.70979,-4.55479 -2.518,-8.71477 -5.31784,-12.23434 -0.8218,-1.03304 -3.23325,-3.40753 -4.22481,-4.16005 -3.61607,-2.74431 -7.3982,-4.37577 -11.76867,-5.07655 -1.59389,-0.25556 -4.9601,-0.31795 -6.64633,-0.12316 -4.83718,0.55876 -9.03206,2.28335 -12.95153,5.3246 -1.08146,0.83914 -3.1187,2.85384 -3.9947,3.95049 -4.90127,6.13587 -6.71987,13.96202 -5.01494,21.58132 0.44446,1.98626 1.03492,3.63341 2.02146,5.63902 2.16237,4.39604 5.58781,8.09041 9.84568,10.61865 2.95821,1.75653 6.34439,2.90629 9.86563,3.34983 1.30394,0.16424 5.52241,0.11779 6.68106,-0.0736 z m -5.35199,-2.8451 c -3.24669,-0.26082 -6.65799,-1.30489 -9.2924,-2.84405 -6.53505,-3.81811 -10.6628,-10.56573 -11.01485,-18.00594 -0.3017,-6.37615 1.96251,-12.28462 6.41819,-16.74831 2.95255,-2.95785 6.49079,-4.93965 10.54472,-5.90619 1.85597,-0.44251 2.90684,-0.55792 5.08,-0.55792 2.01686,0 3.07854,0.1038 4.74134,0.46356 3.16329,0.68441 6.26215,2.1466 8.93233,4.2147 0.93352,0.72302 2.46576,2.21349 3.3212,3.23066 2.60017,3.09175 4.3907,7.17461 4.93834,11.26067 0.14196,1.0592 0.15955,3.82201 0.0326,5.12879 -0.17877,1.84086 -0.88662,4.71366 -1.54216,6.25888 -0.38745,0.91325 -1.25393,2.52124 -1.87023,3.4707 -0.89064,1.37211 -1.80472,2.4891 -3.05091,3.72817 -3.40596,3.38648 -7.72208,5.51042 -12.53921,6.17047 -1.17413,0.16088 -3.53684,0.22917 -4.699,0.13581 z m 11.15906,-4.42042 c 0.25351,-0.2535 -0.0343,-0.65359 -0.34508,-0.47968 -0.24488,0.13704 -0.12998,0.58128 0.15035,0.58128 0.0512,0 0.13885,-0.0457 0.19473,-0.1016 z m -6.16373,-9.9364 c 0,-0.0671 -0.0572,-0.122 -0.127,-0.122 -0.12753,0 -0.17405,0.17873 -0.0729,0.27992 0.079,0.079 0.19986,-0.0165 0.19986,-0.15792 z m 12.262,-3.06883 c 0.0152,-0.10734 -0.018,-0.25021 -0.0739,-0.3175 -0.0873,-0.10518 0.01,-0.12252 0.692,-0.12363 0.84796,-10e-4 1.0626,-0.0657 0.97567,-0.29222 -0.0298,-0.0777 -0.52114,-0.90648 -1.09184,-1.84175 -0.66897,-1.09633 -1.12014,-1.74856 -1.26988,-1.83578 -0.12774,-0.0744 -0.22299,-0.16203 -0.21167,-0.19471 0.0113,-0.0327 0.2283,-0.20426 0.48217,-0.38129 0.93356,-0.65099 1.32568,-1.47615 1.25568,-2.64243 -0.0785,-1.30807 -0.80139,-2.11759 -2.24384,-2.51274 -0.55918,-0.15318 -4.63771,-0.2834 -4.76198,-0.15204 -0.0392,0.0414 -0.0844,2.2388 -0.10065,4.88313 -0.0258,4.20318 -0.0135,4.81799 0.0975,4.88821 0.0698,0.0442 0.55291,0.0809 1.07346,0.0816 1.31632,0.002 1.24024,0.12739 1.20144,-1.98331 l -0.0312,-1.6984 0.20159,-0.0285 c 0.11088,-0.0157 0.32767,-0.005 0.48176,0.0241 0.26101,0.049 0.34203,0.16095 1.18442,1.63717 0.49734,0.87154 0.96287,1.65145 1.03452,1.73314 0.0716,0.0817 0.27757,0.18819 0.4576,0.23667 0.31175,0.0839 0.32138,0.0967 0.20225,0.26673 -0.0917,0.13092 -0.10204,0.22166 -0.0387,0.33997 0.12061,0.22536 0.44767,0.16694 0.48358,-0.0864 z m -3.9435,-5.73954 c -0.0784,-0.0358 -0.10583,-0.40752 -0.10583,-1.43265 0,-1.61004 -0.0554,-1.52644 0.9511,-1.43487 0.84593,0.077 1.2787,0.29301 1.49914,0.74838 0.22544,0.46569 0.2207,0.85652 -0.0161,1.32607 -0.26628,0.52806 -0.70013,0.75136 -1.55855,0.80218 -0.36517,0.0216 -0.71157,0.0175 -0.76978,-0.009 z m -4.19029,5.22947 c 0.084,-0.0533 0.10191,-1.08783 0.0847,-4.8882 l -0.0219,-4.82057 -1.09111,-0.0238 c -0.86949,-0.019 -1.11885,0.002 -1.22767,0.10141 -0.0751,0.0688 -0.8033,1.44071 -1.61822,3.04858 -0.81492,1.60786 -1.50701,2.9243 -1.53798,2.92542 -0.031,10e-4 -0.73059,-1.32194 -1.5547,-2.94013 -0.82412,-1.61819 -1.53687,-2.98979 -1.58389,-3.048 -0.0607,-0.0751 -0.4142,-0.10583 -1.21882,-0.10583 H 329.104 l 0.0219,4.84717 0.0219,4.84716 h 0.97367 0.97366 l 0.0423,-3.03994 c 0.0314,-2.25728 0.0666,-3.00931 0.13677,-2.921 0.0519,0.0654 0.60325,1.10954 1.22511,2.32028 0.62187,1.21073 1.23366,2.3061 1.35955,2.43416 0.19397,0.19733 0.29764,0.23238 0.67989,0.22983 0.24805,-0.002 0.54626,-0.055 0.66268,-0.11867 0.15206,-0.0831 0.56092,-0.79071 1.45203,-2.51301 0.6822,-1.31853 1.28227,-2.41131 1.3335,-2.42838 0.0666,-0.0222 0.0931,0.82358 0.0931,2.96474 0,2.21717 0.0264,3.0222 0.1016,3.09739 0.11545,0.11545 1.65126,0.14185 1.82528,0.0314 z m -21.65421,-3.06243 c 0.0246,-1.74768 0.075,-3.00567 0.12041,-3.00567 0.043,0 0.62143,1.04753 1.28552,2.32785 0.6699,1.2915 1.30629,2.41287 1.42948,2.51883 0.31508,0.27103 1.04218,0.27038 1.35792,-0.001 0.12556,-0.108 0.74891,-1.20878 1.42289,-2.51266 0.6597,-1.27626 1.24659,-2.33578 1.3042,-2.3545 0.0816,-0.0265 0.10967,0.63538 0.127,2.99949 l 0.0222,3.03353 h 0.93133 0.93133 l 0.0219,-4.84716 0.0219,-4.84717 h -1.09806 c -0.9822,0 -1.11404,0.0175 -1.24952,0.16578 -0.0833,0.0912 -0.79917,1.46174 -1.5908,3.04569 -0.79164,1.58395 -1.47744,2.88048 -1.524,2.88116 -0.0466,6.8e-4 -0.73237,-1.29561 -1.524,-2.88066 -0.79164,-1.58506 -1.5075,-2.95618 -1.5908,-3.04695 -0.13521,-0.14731 -0.26927,-0.16502 -1.24884,-0.16502 h -1.09736 v 4.81189 c 0,2.64654 0.0266,4.8385 0.0591,4.87103 0.0325,0.0325 0.46116,0.0484 0.9525,0.0353 l 0.89337,-0.0239 z m 9.18968,-11.04647 c 0.0318,-0.25473 0.10654,-0.50353 0.16604,-0.55291 0.0595,-0.0494 0.341,-0.13079 0.62556,-0.18092 0.28456,-0.0501 0.51739,-0.12283 0.51739,-0.16156 0,-0.0387 -0.18098,-0.0931 -0.40217,-0.1209 -0.65983,-0.0828 -0.81256,-0.19983 -0.8899,-0.68195 -0.0371,-0.23153 -0.088,-0.47811 -0.11309,-0.54796 -0.0405,-0.11289 -0.0532,-0.11289 -0.114,0 -0.0376,0.0698 -0.0933,0.29845 -0.12378,0.508 -0.0779,0.53634 -0.12867,0.58672 -0.68202,0.67678 -0.76876,0.12512 -0.76233,0.21135 0.0261,0.35023 0.56654,0.0998 0.52353,0.044 0.72566,0.94149 0.084,0.37281 0.20169,0.2702 0.26422,-0.2303 z m -1.73901,-0.3412 c 0,-0.0706 -0.0753,-0.127 -0.16934,-0.127 -0.0941,0 -0.16933,0.0564 -0.16933,0.127 0,0.0706 0.0753,0.127 0.16933,0.127 0.0941,0 0.16934,-0.0564 0.16934,-0.127 z m -0.59267,-0.92634 c 0,-0.0671 -0.0414,-0.1476 -0.092,-0.17889 -0.11955,-0.0739 -0.28274,0.0893 -0.20885,0.20885 0.083,0.13428 0.30089,0.11259 0.30089,-0.03 z m 12.192,-0.77199 c 0,-0.12446 -0.18075,-0.16703 -0.28149,-0.0663 -0.0766,0.0766 0.11319,0.29232 0.20642,0.2347 0.0413,-0.0255 0.0751,-0.1013 0.0751,-0.1684 z m -8.33967,-3.59334 c 0,-0.0686 -0.0667,-0.13752 -0.14816,-0.15321 -0.10396,-0.02 -0.14817,0.0257 -0.14817,0.15321 0,0.12752 0.0442,0.17324 0.14817,0.15322 0.0815,-0.0157 0.14816,-0.0846 0.14816,-0.15322 z m 8.71425,-0.0212 c 0.0215,-0.10477 0.071,-0.3429 0.10994,-0.52916 l 0.0708,-0.33867 0.61135,-0.11659 c 0.33624,-0.0641 0.61134,-0.14751 0.61134,-0.18531 0,-0.0378 -0.18098,-0.0931 -0.40217,-0.1229 -0.74774,-0.10074 -0.81863,-0.14473 -0.8954,-0.55568 -0.0385,-0.2058 -0.0872,-0.46147 -0.10832,-0.56815 -0.061,-0.30811 -0.19272,-0.1342 -0.25523,0.33702 -0.0639,0.48176 -0.26648,0.74594 -0.57196,0.74594 -0.30976,0 -0.73025,0.0984 -0.73025,0.17087 0,0.0358 0.23812,0.10686 0.52916,0.15797 0.2929,0.0514 0.57328,0.15291 0.62796,0.22727 0.0543,0.0739 0.12458,0.32188 0.15611,0.55111 0.0603,0.43814 0.18049,0.54843 0.24668,0.22628 z m -3.16948,-0.95142 c 0.15086,-0.18177 0.0392,-0.3993 -0.18836,-0.36685 -0.21699,0.031 -0.30795,0.30923 -0.13657,0.41783 0.15872,0.10059 0.20519,0.0933 0.32493,-0.051 z m -2.46138,-0.6231 c 0.0968,-0.18094 -0.0269,-0.35164 -0.25493,-0.35164 -0.18395,0 -0.27775,0.24087 -0.15255,0.39173 0.13451,0.16208 0.30844,0.14496 0.40748,-0.0401 z"
         id="path3759"
         inkscape:connector-curvature="0" />
      <path
         style="fill:#605f5f;stroke-width:0.08466667"
         d="m 329.52871,356.32532 c -7.44615,-0.89265 -14.04002,-4.63657 -18.52989,-10.52108 -2.97844,-3.9036 -4.73034,-8.23973 -5.40062,-13.36711 -0.19442,-1.48723 -0.19358,-4.74161 0.002,-6.24526 0.77123,-5.94107 3.11315,-11.02084 7.05806,-15.30939 3.67121,-3.99102 8.63821,-6.85734 13.95529,-8.05324 2.47523,-0.55672 5.85865,-0.78661 8.30735,-0.56445 6.4531,0.58546 12.25962,3.28085 16.79707,7.7972 4.37281,4.35248 6.97847,9.64192 7.84155,15.91821 0.21016,1.52821 0.20953,5.12887 -0.001,6.68867 -0.85917,6.36079 -3.67266,11.9722 -8.14238,16.2397 -4.43238,4.23185 -9.8023,6.73702 -15.91789,7.426 -1.38127,0.15561 -4.63583,0.15057 -5.969,-0.009 z m 6.70666,-1.8452 c 6.09984,-1.00743 10.99046,-3.597 15.04281,-7.96514 3.50871,-3.78214 5.70246,-8.44021 6.50098,-13.80378 0.23349,-1.56833 0.21224,-5.41639 -0.0388,-7.02733 -0.70979,-4.55479 -2.518,-8.71477 -5.31784,-12.23434 -0.8218,-1.03304 -3.23325,-3.40753 -4.22481,-4.16005 -3.61607,-2.74431 -7.3982,-4.37577 -11.76867,-5.07655 -1.59389,-0.25556 -4.9601,-0.31795 -6.64633,-0.12316 -4.83718,0.55876 -9.03206,2.28335 -12.95153,5.3246 -1.08146,0.83914 -3.1187,2.85384 -3.9947,3.95049 -4.90127,6.13587 -6.71987,13.96202 -5.01494,21.58132 0.44446,1.98626 1.03492,3.63341 2.02146,5.63902 2.16237,4.39604 5.58781,8.09041 9.84568,10.61865 2.95821,1.75653 6.34439,2.90629 9.86563,3.34983 1.30394,0.16424 5.52241,0.11779 6.68106,-0.0736 z m -0.7535,-4.20935 c -0.40549,-0.11718 -0.61916,-0.44243 -0.61916,-0.94245 0,-0.3652 0.0378,-0.45818 0.28787,-0.70825 0.23599,-0.23599 0.35194,-0.28787 0.64346,-0.28787 0.29152,0 0.40748,0.0519 0.64347,0.28787 0.25324,0.25323 0.28787,0.34059 0.28787,0.72618 0,0.37156 -0.0377,0.476 -0.24749,0.6858 -0.13612,0.13611 -0.30445,0.24748 -0.37408,0.24748 -0.0696,0 -0.17733,0.0156 -0.23934,0.0346 -0.062,0.019 -0.23419,-5.1e-4 -0.3826,-0.0434 z m -12.04916,-0.52733 c -4.35797,-1.99052 -8.10542,-5.53532 -10.35309,-9.79324 -3.12099,-5.91231 -3.38038,-13.09515 -0.69253,-19.177 1.67248,-3.78434 4.29143,-6.95508 7.74362,-9.37512 2.612,-1.83106 6.10765,-3.18077 9.525,-3.67772 1.41658,-0.206 4.52009,-0.20516 5.92667,0.002 2.73194,0.40158 4.85934,1.0774 7.19666,2.28618 4.23421,2.18979 7.58344,5.61364 9.70224,9.91839 1.07108,2.17609 1.82862,4.7205 2.10525,7.07103 0.11519,0.97877 -0.007,4.4878 -0.20355,5.84064 -0.17273,1.18957 -0.52495,2.7859 -0.77525,3.51366 -0.11211,0.32597 -0.20365,0.6615 -0.20343,0.74563 5.1e-4,0.19327 -0.56942,1.58218 -0.71894,1.75204 -0.0615,0.0698 -0.31025,0.508 -0.55282,0.97367 -0.59667,1.14547 -1.68705,2.79115 -2.49634,3.76766 -0.87431,1.05498 -2.80919,3.02862 -3.13182,3.19456 -0.1397,0.0719 -0.39864,0.24432 -0.57541,0.38325 -0.44031,0.34607 -0.48365,0.23786 -0.0824,-0.20587 0.18214,-0.20145 0.41497,-0.50536 0.51739,-0.67537 0.10242,-0.17 0.23888,-0.32931 0.30325,-0.35401 0.29745,-0.11414 2.21949,-2.76902 3.26533,-4.51035 0.65373,-1.08846 1.98789,-3.68847 2.18959,-4.26707 0.0797,-0.22875 0.0629,-0.27739 -0.17261,-0.49746 -0.207,-0.19346 -0.26952,-0.33263 -0.3022,-0.67271 -0.0539,-0.56091 0.0257,-0.95785 0.23778,-1.18547 0.23341,-0.25053 0.39128,-0.23173 0.68384,0.0815 0.13647,0.14609 0.26622,0.24752 0.28834,0.22541 0.075,-0.075 0.4628,-1.28175 0.4628,-1.44017 0,-0.12947 -0.0291,-0.14189 -0.16376,-0.0698 -0.22505,0.12044 -0.25957,0.11145 -0.25957,-0.0677 0,-0.0854 0.15813,-0.38069 0.3514,-0.65617 0.19327,-0.27548 0.40147,-0.62022 0.46265,-0.7661 0.11197,-0.26694 0.3967,-1.84605 0.50027,-2.77449 l 0.0557,-0.49972 -0.97628,0.0584 c -1.25392,0.075 -2.90308,0.31557 -4.47383,0.65272 -1.16751,0.25059 -1.73208,0.27697 -1.66214,0.0776 0.0149,-0.0426 0.23489,-0.22231 0.48876,-0.39933 0.93356,-0.65099 1.32568,-1.47615 1.25568,-2.64243 -0.0795,-1.3244 -0.81289,-2.13209 -2.28888,-2.52073 -0.41898,-0.11032 -0.96941,-0.14077 -2.64571,-0.14638 l -2.11667,-0.007 -0.022,3.92935 c -0.0161,2.8741 -0.0489,3.9618 -0.12228,4.05016 -0.16282,0.19619 -1.43624,0.80315 -1.51655,0.72284 -0.0403,-0.0403 -0.0831,-1.99573 -0.0952,-4.34546 l -0.022,-4.27222 -1.09111,-0.0238 c -0.86949,-0.019 -1.11885,0.002 -1.22767,0.10141 -0.0751,0.0688 -0.8033,1.44071 -1.61822,3.04858 -0.81492,1.60786 -1.50701,2.9243 -1.53798,2.92542 -0.031,0.001 -0.73059,-1.32194 -1.5547,-2.94013 -0.82412,-1.61819 -1.53687,-2.98979 -1.58389,-3.048 -0.0607,-0.0751 -0.4142,-0.10583 -1.21882,-0.10583 h -1.13333 l 0.0219,4.84717 0.0219,4.84716 h 0.97367 0.97366 l 0.0423,-3.03994 c 0.0314,-2.25728 0.0666,-3.00931 0.13677,-2.921 0.0519,0.0654 0.60325,1.10954 1.22511,2.32028 0.62187,1.21073 1.23366,2.3061 1.35955,2.43416 0.19397,0.19733 0.29764,0.23238 0.67989,0.22983 0.24805,-0.002 0.54626,-0.055 0.66268,-0.11867 0.15206,-0.0831 0.56092,-0.79071 1.45203,-2.51301 0.6822,-1.31853 1.28227,-2.41131 1.3335,-2.42838 0.0665,-0.0222 0.0931,0.80222 0.0931,2.88643 0,1.60461 0.0207,3.02701 0.046,3.16089 0.0429,0.22654 8.5e-4,0.27261 -0.60613,0.66465 -5.21729,3.36983 -9.79813,8.83069 -12.38686,14.76651 -0.45851,1.05132 -0.49262,1.11167 -0.62589,1.10723 -0.0555,-0.002 -0.53898,-0.20347 -1.0745,-0.44807 z m -5.08,-19.10657 c 0.0246,-1.74768 0.075,-3.00567 0.12041,-3.00567 0.043,0 0.62143,1.04753 1.28552,2.32785 0.6699,1.2915 1.30629,2.41287 1.42948,2.51883 0.31508,0.27103 1.04218,0.27038 1.35792,-0.001 0.12556,-0.108 0.74891,-1.20878 1.42289,-2.51266 0.6597,-1.27626 1.24659,-2.33578 1.3042,-2.3545 0.0816,-0.0265 0.10967,0.63538 0.127,2.99949 l 0.0222,3.03353 h 0.93133 0.93133 l 0.0219,-4.84716 0.0219,-4.84717 h -1.09806 c -0.9822,0 -1.11404,0.0175 -1.24952,0.16578 -0.0833,0.0912 -0.79917,1.46174 -1.5908,3.04569 -0.79164,1.58395 -1.47744,2.88048 -1.524,2.88116 -0.0466,6.8e-4 -0.73237,-1.29561 -1.524,-2.88066 -0.79164,-1.58506 -1.5075,-2.95618 -1.5908,-3.04695 -0.13521,-0.14731 -0.26927,-0.16502 -1.24884,-0.16502 h -1.09736 v 4.81189 c 0,2.64654 0.0266,4.8385 0.0591,4.87103 0.0325,0.0325 0.46116,0.0484 0.9525,0.0353 l 0.89337,-0.0239 z m 9.18968,-11.04647 c 0.0318,-0.25473 0.10654,-0.50353 0.16604,-0.55291 0.0595,-0.0494 0.341,-0.13079 0.62556,-0.18092 0.28456,-0.0501 0.51739,-0.12283 0.51739,-0.16156 0,-0.0387 -0.18098,-0.0931 -0.40217,-0.1209 -0.65983,-0.0828 -0.81256,-0.19983 -0.8899,-0.68195 -0.0371,-0.23153 -0.088,-0.47811 -0.11309,-0.54796 -0.0405,-0.11289 -0.0532,-0.11289 -0.114,0 -0.0376,0.0698 -0.0933,0.29845 -0.12378,0.508 -0.0779,0.53634 -0.12867,0.58672 -0.68202,0.67678 -0.76876,0.12512 -0.76233,0.21135 0.0261,0.35023 0.56654,0.0998 0.52353,0.044 0.72566,0.94149 0.084,0.37281 0.20169,0.2702 0.26422,-0.2303 z m -1.73901,-0.3412 c 0,-0.0706 -0.0753,-0.127 -0.16934,-0.127 -0.0941,0 -0.16933,0.0564 -0.16933,0.127 0,0.0706 0.0753,0.127 0.16933,0.127 0.0941,0 0.16934,-0.0564 0.16934,-0.127 z m -0.59267,-0.92634 c 0,-0.0671 -0.0414,-0.1476 -0.092,-0.17889 -0.11955,-0.0739 -0.28274,0.0893 -0.20885,0.20885 0.083,0.13428 0.30089,0.11259 0.30089,-0.03 z m 12.192,-0.77199 c 0,-0.12446 -0.18075,-0.16703 -0.28149,-0.0663 -0.0766,0.0766 0.11319,0.29232 0.20642,0.2347 0.0413,-0.0255 0.0751,-0.1013 0.0751,-0.1684 z m -8.33967,-3.59334 c 0,-0.0686 -0.0667,-0.13752 -0.14816,-0.15321 -0.10396,-0.02 -0.14817,0.0257 -0.14817,0.15321 0,0.12752 0.0442,0.17324 0.14817,0.15322 0.0815,-0.0157 0.14816,-0.0846 0.14816,-0.15322 z m 8.71425,-0.0212 c 0.0215,-0.10477 0.071,-0.3429 0.10994,-0.52916 l 0.0708,-0.33867 0.61135,-0.11659 c 0.33624,-0.0641 0.61134,-0.14751 0.61134,-0.18531 0,-0.0378 -0.18098,-0.0931 -0.40217,-0.1229 -0.74774,-0.10074 -0.81863,-0.14473 -0.8954,-0.55568 -0.0385,-0.2058 -0.0872,-0.46147 -0.10832,-0.56815 -0.061,-0.30811 -0.19272,-0.1342 -0.25523,0.33702 -0.0639,0.48176 -0.26648,0.74594 -0.57196,0.74594 -0.30976,0 -0.73025,0.0984 -0.73025,0.17087 0,0.0358 0.23812,0.10686 0.52916,0.15797 0.2929,0.0514 0.57328,0.15291 0.62796,0.22727 0.0543,0.0739 0.12458,0.32188 0.15611,0.55111 0.0603,0.43814 0.18049,0.54843 0.24668,0.22628 z m -3.16948,-0.95142 c 0.15086,-0.18177 0.0392,-0.3993 -0.18836,-0.36685 -0.21699,0.031 -0.30795,0.30923 -0.13657,0.41783 0.15872,0.10059 0.20519,0.0933 0.32493,-0.051 z m -2.46138,-0.6231 c 0.0968,-0.18094 -0.0269,-0.35164 -0.25493,-0.35164 -0.18395,0 -0.27775,0.24087 -0.15255,0.39173 0.13451,0.16208 0.30844,0.14496 0.40748,-0.0401 z m -2.85964,37.38853 c 0.0565,-0.10478 0.20536,-0.4572 0.33084,-0.78317 0.24785,-0.64392 0.50375,-0.84601 0.50375,-0.39785 0,0.5904 -0.44408,1.37152 -0.77974,1.37152 -0.13738,0 -0.1444,-0.0244 -0.0548,-0.1905 z m 11.92592,0.0273 c 0,-0.1363 0.43786,-0.42948 0.64142,-0.42948 0.34433,0 0.31267,0.16736 -0.064,0.3383 -0.40337,0.18305 -0.57742,0.21054 -0.57742,0.0912 z m -10.11999,-0.51671 c -0.22296,-0.24637 -0.0853,-0.62197 0.24183,-0.65972 0.3022,-0.0349 0.48016,0.11401 0.48016,0.40172 0,0.43076 -0.42741,0.5835 -0.72199,0.258 z m 8.68758,-2.65609 c -0.13484,-0.16247 -0.091,-0.38726 0.0989,-0.50684 0.21719,-0.13677 0.4445,0.0363 0.4445,0.33839 0,0.20024 -0.0398,0.2494 -0.21891,0.27022 -0.12041,0.014 -0.26643,-0.0318 -0.3245,-0.10177 z m -3.43299,-0.21527 c -0.0347,-0.0562 0.22554,-0.22169 0.67053,-0.4263 0.47836,-0.21996 0.88638,-0.48487 1.19203,-0.77394 0.2556,-0.24173 0.48792,-0.41631 0.51628,-0.38795 0.0947,0.0947 -0.045,0.43715 -0.30759,0.75412 -0.42551,0.51361 -1.90188,1.10812 -2.07125,0.83407 z m -5.61345,-0.4741 c -0.2813,-0.11828 -0.35848,-0.26481 -0.35848,-0.68057 0,-0.39697 0.24697,-0.62807 0.67118,-0.62807 0.58924,0 0.8878,0.64875 0.51605,1.12134 -0.20439,0.25984 -0.49826,0.32626 -0.82875,0.1873 z m 4.40402,-0.16426 c -0.20869,-0.15116 -0.24712,-0.45291 -0.0953,-0.74778 0.15761,-0.30602 0.43256,-0.56594 0.59866,-0.56594 0.086,0 0.19816,-0.0917 0.24922,-0.20373 0.13232,-0.29041 1.11194,-0.7276 1.63036,-0.7276 0.56093,0 0.72852,0.10897 0.72852,0.47371 0,0.90265 -2.41374,2.27676 -3.1115,1.77134 z m 8.02216,-2.2892 c 0,-0.0708 -0.091,-0.1703 -0.20233,-0.221 -0.19966,-0.091 -0.39033,-0.39448 -0.39033,-0.62134 0,-0.0641 0.0952,-0.22972 0.21166,-0.36807 0.11642,-0.13835 0.21167,-0.32587 0.21167,-0.41671 0,-0.2245 0.28552,-0.46656 0.55033,-0.46656 0.52814,0 0.72073,0.59856 0.33867,1.0526 -0.11642,0.13836 -0.21167,0.31721 -0.21167,0.39746 0,0.0803 -0.0457,0.19162 -0.1016,0.2475 -0.079,0.079 -0.074,0.1016 0.0227,0.1016 0.21101,0 0.72941,-0.40224 0.92384,-0.71684 0.22365,-0.36186 0.34042,-0.38171 0.34042,-0.0579 0,0.35437 -0.42781,0.89356 -0.83975,1.05839 -0.44825,0.17935 -0.85359,0.1845 -0.85359,0.0108 z m 4.28978,-0.2663 c -0.092,-0.092 -0.0644,-0.40977 0.0452,-0.51928 0.25516,-0.25516 0.63281,-0.002 0.54124,0.36296 -0.0412,0.1642 -0.1078,0.21277 -0.29168,0.21277 -0.13105,0 -0.26368,-0.0254 -0.29472,-0.0565 z m -15.43762,-0.41897 c -0.13016,-0.19865 -0.1322,-0.24438 -0.0199,-0.4445 0.10216,-0.18203 0.18656,-0.22308 0.45859,-0.22308 0.28619,0 0.3448,0.0325 0.41406,0.22942 0.0548,0.15577 0.0492,0.29847 -0.0173,0.4445 -0.14116,0.3098 -0.63076,0.30608 -0.83547,-0.006 z m 3.27384,-0.14342 c 0,-0.0695 0.29627,-0.27842 0.67166,-0.47373 0.36941,-0.19219 0.89304,-0.5168 1.16361,-0.72136 0.53303,-0.40297 0.68753,-0.42309 0.49998,-0.0651 -0.19822,0.37834 -0.65322,0.75445 -1.23458,1.0205 -0.70863,0.32429 -1.10067,0.40967 -1.10067,0.23969 z m -1.4691,-0.35436 c -0.24298,-0.24298 -0.0293,-0.664 0.65907,-1.29851 1.18097,-1.08858 2.99145,-1.8485 3.40905,-1.4309 0.11691,0.11692 0.12026,0.1722 0.0244,0.40357 -0.46484,1.12224 -3.54541,2.87297 -4.09254,2.32584 z m 3.23098,-2.05363 c -0.0344,-0.17847 -0.18463,-0.16721 -0.22292,0.0167 -0.016,0.0767 0.0307,0.13147 0.11204,0.13147 0.0872,0 0.12873,-0.0555 0.11088,-0.14816 z m 2.86657,1.53105 c -0.11038,-0.11038 -0.0518,-0.18419 0.31846,-0.40118 0.44783,-0.26244 0.55643,-0.27347 0.55643,-0.0565 0,0.30852 -0.67234,0.66025 -0.87489,0.4577 z m -1.15262,-0.48848 c -0.0692,-0.0834 -0.0749,-0.16986 -0.0181,-0.27516 0.32532,-0.60366 1.45298,-1.01917 1.45298,-0.53539 0,0.31041 -0.81012,0.93214 -1.21458,0.93214 -0.0656,0 -0.16476,-0.0547 -0.22026,-0.12159 z m 9.85688,-1.74478 c -0.0713,-0.1153 0.0983,-0.3146 0.40078,-0.471 0.41828,-0.2163 0.54353,0.006 0.19803,0.35155 -0.21548,0.21548 -0.5039,0.27301 -0.59881,0.11945 z m -15.06233,-0.38334 c -0.18329,-0.1833 -0.16665,-0.51069 0.0363,-0.71362 0.2095,-0.2095 0.35027,-0.21331 0.59387,-0.0161 0.20983,0.16991 0.25121,0.53359 0.0837,0.73546 -0.13806,0.16634 -0.545,0.16304 -0.71384,-0.006 z m 14.51429,-0.12095 c -0.36123,-0.36124 -0.0969,-1.016 0.41021,-1.016 0.30387,0 0.54934,0.26482 0.54934,0.59266 0,0.52333 -0.59642,0.78646 -0.95955,0.42334 z m -2.96333,-1.00663 c -0.30078,-0.0804 -0.51511,-0.53558 -0.41597,-0.88337 0.0959,-0.33635 0.28637,-0.48067 0.63444,-0.48067 0.36148,0 0.62264,0.22946 0.68178,0.59903 0.0801,0.50064 -0.39116,0.90111 -0.90025,0.76501 z m -2.26907,-0.28031 c -0.0559,-0.0559 -0.1016,-0.20066 -0.1016,-0.32173 0,-0.28376 0.14417,-0.42333 0.43729,-0.42333 0.23433,0 0.40938,0.19415 0.40938,0.45405 0,0.31571 -0.51803,0.51805 -0.74507,0.29101 z m -4.71597,-0.94707 c -0.31225,-0.13609 -0.45037,-0.29624 -0.54748,-0.63483 -0.10618,-0.37024 0.0379,-0.80444 0.3556,-1.07179 0.5806,-0.48854 1.50425,-0.041 1.50425,0.72883 0,0.46534 -0.20705,0.83015 -0.55324,0.9748 -0.34784,0.14534 -0.43174,0.14567 -0.75913,0.003 z m 5.81769,-1.08387 c -0.13891,-0.13892 -0.12909,-0.28012 0.0286,-0.41098 0.18774,-0.15582 0.4592,0.10787 0.32693,0.31757 -0.11892,0.18852 -0.23097,0.21796 -0.35553,0.0934 z m -1.64782,-0.75291 c -0.18267,-0.10639 -0.19336,-0.44298 -0.0187,-0.58796 0.099,-0.0822 0.17874,-0.085 0.33867,-0.0122 0.23896,0.10888 0.27336,0.36129 0.0761,0.55854 -0.15422,0.15423 -0.19535,0.15854 -0.39612,0.0416 z m 8.19952,-1.3031 c -0.35286,-0.19085 -0.46793,-0.37874 -0.47099,-0.76899 -0.004,-0.49659 0.35338,-1.14461 0.9136,-1.65703 0.63128,-0.57742 1.18755,-0.8342 1.80948,-0.83527 0.61637,-10e-4 0.90323,0.21548 0.97283,0.73433 0.16779,1.25098 -2.18113,3.09153 -3.22492,2.52696 z m -8.94035,-0.42078 c 0,-0.0726 0.0381,-0.132 0.0847,-0.132 0.0466,0 0.0847,0.0358 0.0847,0.0797 0,0.0438 -0.0381,0.10322 -0.0847,0.132 -0.0466,0.0288 -0.0847,-0.007 -0.0847,-0.0797 z m 2.66954,-1.48256 c -0.0731,-0.11822 0.02,-0.25811 0.17179,-0.25811 0.15545,0 0.15668,0.11982 0.003,0.24775 -0.0817,0.0678 -0.13683,0.071 -0.17433,0.0104 z m -0.0936,-0.96388 c -0.0263,-0.0686 -0.0357,-0.25223 -0.0207,-0.408 0.0215,-0.22423 0.0691,-0.28917 0.22872,-0.31174 0.34611,-0.0489 0.76615,0.0709 0.85945,0.24523 0.0789,0.1474 0.0466,0.18545 -0.27414,0.32277 -0.61912,0.26508 -0.74086,0.28837 -0.79328,0.15174 z m 0.0699,-2.30793 c -0.0784,-0.0358 -0.10583,-0.40752 -0.10583,-1.43265 0,-1.61004 -0.0554,-1.52644 0.9511,-1.43487 0.84593,0.077 1.2787,0.29301 1.49914,0.74838 0.22544,0.46569 0.2207,0.85652 -0.0161,1.32607 -0.26628,0.52806 -0.70013,0.75136 -1.55855,0.80218 -0.36517,0.0216 -0.71157,0.0175 -0.76978,-0.009 z"
         id="path3757"
         inkscape:connector-curvature="0" />
      <path
         style="fill:#aa2a21;stroke-width:0.08466667"
         d="m 330.70212,356.42006 c -0.0221,-0.0221 -0.41895,-0.0812 -0.88194,-0.13133 -12.78554,-1.38496 -22.74936,-11.2744 -24.16243,-23.98206 -0.0455,-0.40876 -0.10528,-0.77985 -0.13296,-0.82463 -0.0868,-0.14053 -0.0572,-4.04367 0.0343,-4.50866 0.0479,-0.24357 0.13017,-0.8048 0.18282,-1.24718 0.23426,-1.96852 0.90785,-4.54283 1.70486,-6.5156 3.78559,-9.37017 12.44552,-15.85765 22.4931,-16.85043 1.32896,-0.13132 4.36434,-0.10695 5.68486,0.0456 6.21039,0.7176 11.73005,3.38022 16.13144,7.78162 2.79633,2.79633 4.88001,6.035 6.25646,9.72444 0.68094,1.82518 1.2994,4.42236 1.48536,6.23766 0.0501,0.48895 0.13306,1.2319 0.18438,1.651 0.22459,1.83401 -0.14216,5.45786 -0.82954,8.19665 -1.19399,4.75734 -3.60728,8.98588 -7.13692,12.50529 -1.4548,1.45057 -2.46423,2.27589 -4.19401,3.42905 -3.27866,2.18573 -7.17663,3.6766 -10.94831,4.18744 -0.68486,0.0927 -1.50308,0.20748 -1.81827,0.25494 -0.5656,0.0852 -3.97533,0.124 -4.05318,0.0462 z m 5.38826,-1.85367 c 4.14846,-0.64026 7.47606,-1.93469 10.83733,-4.21569 5.40846,-3.67025 9.20544,-9.32259 10.5748,-15.74207 0.41587,-1.9496 0.51624,-3.00652 0.50982,-5.36876 -0.006,-2.30324 -0.12785,-3.49691 -0.552,-5.41867 -0.8065,-3.65421 -2.5986,-7.40001 -4.95671,-10.36037 -0.86649,-1.08779 -2.99231,-3.20494 -4.09424,-4.07755 -3.50566,-2.77607 -7.6475,-4.57358 -12.10701,-5.25429 -1.47198,-0.22469 -4.38753,-0.30864 -5.89703,-0.16981 -3.29997,0.30352 -6.09223,1.08925 -9.04696,2.5458 -2.65275,1.30767 -4.68814,2.77371 -6.81567,4.90915 -4.07747,4.09262 -6.48865,9.0647 -7.24849,14.94707 -0.19265,1.49143 -0.19265,4.43523 0,5.92667 0.74024,5.73059 3.04839,10.60423 6.95216,14.67938 4.09645,4.2763 9.40061,6.90896 15.45166,7.66928 1.28145,0.16101 5.17115,0.11833 6.39234,-0.0701 z m -0.60851,-4.29562 c -0.40549,-0.11718 -0.61916,-0.44243 -0.61916,-0.94245 0,-0.3652 0.0378,-0.45818 0.28787,-0.70825 0.23599,-0.23599 0.35194,-0.28787 0.64346,-0.28787 0.29152,0 0.40748,0.0519 0.64347,0.28787 0.25324,0.25323 0.28787,0.34059 0.28787,0.72618 0,0.37156 -0.0377,0.476 -0.24749,0.6858 -0.13612,0.13611 -0.30445,0.24748 -0.37408,0.24748 -0.0696,0 -0.17733,0.0156 -0.23934,0.0346 -0.062,0.019 -0.23419,-5.1e-4 -0.3826,-0.0434 z m -11.79516,-0.48694 c -4.76296,-2.13466 -8.5514,-5.7926 -10.8421,-10.46863 -1.52553,-3.11408 -2.20804,-6.09751 -2.20804,-9.652 0,-3.71504 0.73523,-6.85127 2.34544,-10.00492 2.89705,-5.67394 8.07795,-9.819 14.21466,-11.37263 2.07182,-0.52453 2.9969,-0.6325 5.42237,-0.63288 1.61753,-2.6e-4 2.34627,0.0354 3.09034,0.1514 4.85784,0.75703 8.86935,2.72742 12.2663,6.02504 3.82351,3.71169 6.07771,8.40969 6.60217,13.75966 0.0971,0.99067 -0.015,4.01741 -0.19446,5.24933 -0.27709,1.90222 -0.72374,3.57923 -1.37393,5.15861 -0.72746,1.76708 -2.13438,4.09983 -3.37388,5.59406 -0.81951,0.98792 -2.44428,2.66209 -2.91697,3.00566 -0.1922,0.1397 -0.52167,0.38157 -0.73215,0.53748 -0.21048,0.15591 -0.40258,0.26358 -0.4269,0.23927 -0.0243,-0.0243 0.10482,-0.20903 0.28697,-0.41048 0.18214,-0.20145 0.41497,-0.50536 0.51739,-0.67537 0.10242,-0.17 0.23888,-0.3293 0.30325,-0.354 0.29745,-0.11415 2.21949,-2.76903 3.26533,-4.51036 0.65373,-1.08845 1.98789,-3.68847 2.18959,-4.26707 0.0797,-0.22875 0.0629,-0.27739 -0.17261,-0.49746 -0.207,-0.19346 -0.26952,-0.33263 -0.3022,-0.67271 -0.0539,-0.56091 0.0257,-0.95785 0.23778,-1.18546 0.23341,-0.25054 0.39128,-0.23174 0.68384,0.0815 0.13647,0.14609 0.26622,0.24752 0.28834,0.22541 0.075,-0.075 0.4628,-1.28175 0.4628,-1.44017 0,-0.12947 -0.0291,-0.14189 -0.16376,-0.0698 -0.22505,0.12044 -0.25957,0.11145 -0.25957,-0.0677 0,-0.0854 0.15813,-0.38069 0.3514,-0.65617 0.19327,-0.27548 0.40147,-0.62022 0.46265,-0.7661 0.11198,-0.26697 0.39669,-1.84603 0.50031,-2.7748 l 0.0558,-0.50003 -0.96024,0.0575 c -1.23918,0.0742 -3.03147,0.33477 -4.47313,0.65025 -1.30594,0.28579 -1.38399,0.2926 -1.5169,0.13246 -0.0783,-0.0944 -0.0244,-0.16035 0.27436,-0.33543 0.47994,-0.28127 0.87264,-0.73301 1.14853,-1.32121 0.3042,-0.64856 0.31073,-1.77098 0.0142,-2.44052 -0.3562,-0.80427 -1.20815,-1.39085 -2.37513,-1.63532 -0.63332,-0.13268 -4.25336,-0.20253 -4.4706,-0.0863 l -0.18559,0.0993 -0.022,3.99796 -0.022,3.99797 -0.67734,0.35693 c -0.37253,0.19631 -0.70591,0.35823 -0.74083,0.35983 -0.0349,0.002 -0.064,-1.89257 -0.0647,-4.20926 -6.7e-4,-2.31669 -0.0241,-4.29789 -0.0522,-4.40267 -0.0497,-0.18544 -0.0809,-0.1905 -1.17666,-0.1905 h -1.12559 l -0.19803,0.24389 c -0.10892,0.13413 -0.82668,1.50259 -1.59503,3.04101 -0.76835,1.53843 -1.42143,2.79076 -1.45129,2.78295 -0.0299,-0.008 -0.71049,-1.30958 -1.51251,-2.89285 -0.80202,-1.58326 -1.5356,-2.94641 -1.63018,-3.0292 -0.14937,-0.13076 -0.31774,-0.14745 -1.28149,-0.127 l -1.10953,0.0235 -0.0219,4.81647 c -0.0158,3.48681 0.005,4.84832 0.0739,4.93183 0.07,0.0844 0.3422,0.11536 1.01372,0.11536 0.8349,0 0.92629,-0.0155 1.00968,-0.17132 0.0613,-0.1145 0.0875,-1.09929 0.079,-2.96881 -0.007,-1.53862 0.002,-2.81177 0.0191,-2.82924 0.0175,-0.0175 0.56884,1.00417 1.22527,2.27031 1.30868,2.52417 1.4329,2.68318 2.09593,2.68293 0.74105,-2.5e-4 0.8236,-0.0976 1.97473,-2.3282 0.57675,-1.1176 1.13233,-2.1844 1.23461,-2.37067 l 0.18597,-0.33866 0.0423,2.96333 c 0.0233,1.62983 0.0707,3.02048 0.10531,3.09033 0.047,0.0947 -0.10189,0.23419 -0.58496,0.54824 -5.26363,3.42196 -9.80463,8.8432 -12.39553,14.79833 -0.22272,0.51192 -0.43635,0.96123 -0.47472,0.99846 -0.0384,0.0372 -0.46982,-0.11159 -0.95877,-0.33073 z m -5.38326,-16.06569 c 0.11859,-0.0455 0.13393,-0.3903 0.13393,-3.01066 0,-1.83348 0.0304,-2.94049 0.0799,-2.9099 0.0439,0.0272 0.59417,1.04938 1.22272,2.27159 0.62856,1.22222 1.24337,2.31667 1.36626,2.43212 0.18932,0.17786 0.30538,0.20991 0.76013,0.20991 0.45372,0 0.57099,-0.0322 0.75856,-0.20844 0.12202,-0.11463 0.74422,-1.22854 1.38265,-2.47535 0.63843,-1.24681 1.18936,-2.26744 1.22429,-2.26807 0.0349,-5.9e-4 0.0635,1.30569 0.0635,2.90293 0,2.14582 0.0265,2.93059 0.1016,3.00566 0.11561,0.11561 1.73533,0.14222 1.90993,0.0314 0.084,-0.0533 0.10191,-1.0963 0.0847,-4.93054 l -0.0219,-4.8629 -1.08033,-0.0237 c -0.60941,-0.0134 -1.14941,0.0133 -1.2388,0.0611 -0.0887,0.0474 -0.81743,1.39138 -1.65419,3.05053 -0.82264,1.63115 -1.51115,2.96572 -1.53001,2.96572 -0.0189,0 -0.70737,-1.33457 -1.53001,-2.96572 -0.83677,-1.65915 -1.56553,-3.00309 -1.65419,-3.05053 -0.0894,-0.0479 -0.6294,-0.0745 -1.23881,-0.0611 l -1.08033,0.0237 -0.0219,4.8629 c -0.0172,3.83424 6.7e-4,4.87721 0.0847,4.93054 0.12429,0.0789 1.6804,0.0945 1.87761,0.0188 z m 9.22433,-13.64344 c 0.0245,-0.12806 0.0691,-0.39526 0.099,-0.59377 0.0634,-0.42006 0.1617,-0.48927 0.80939,-0.56996 0.88729,-0.11054 0.87834,-0.32088 -0.0181,-0.42492 -0.26764,-0.0311 -0.5423,-0.10067 -0.61036,-0.15467 -0.068,-0.054 -0.16492,-0.3417 -0.21527,-0.63934 -0.0503,-0.29764 -0.11217,-0.5618 -0.1374,-0.58702 -0.0954,-0.0954 -0.20174,0.12906 -0.28946,0.61063 -0.0499,0.27414 -0.13094,0.54683 -0.18002,0.60596 -0.0491,0.0591 -0.30906,0.13303 -0.57774,0.16422 -0.87844,0.10195 -0.90798,0.31777 -0.0582,0.42523 0.70513,0.0892 0.69627,0.0815 0.81056,0.7008 0.0577,0.31277 0.12119,0.59725 0.14105,0.63217 0.0763,0.13419 0.18384,0.0538 0.22651,-0.16933 z m -1.68207,-0.82434 c 0,-0.18679 -0.26322,-0.27981 -0.40124,-0.14179 -0.1423,0.1423 -0.002,0.36721 0.21036,0.33707 0.1249,-0.0177 0.19088,-0.0852 0.19088,-0.19528 z m -0.57843,-0.85439 c 0.0282,-0.0735 -0.003,-0.18814 -0.07,-0.25483 -0.1042,-0.1042 -0.1441,-0.10456 -0.28355,-0.003 -0.13793,0.10085 -0.14532,0.1391 -0.0493,0.25483 0.14403,0.17354 0.33676,0.17479 0.40284,0.003 z m 12.17776,-0.84011 c 0,-0.11114 -0.0655,-0.17863 -0.1905,-0.19638 -0.15626,-0.0222 -0.1905,0.0131 -0.1905,0.19638 0,0.1833 0.0342,0.21859 0.1905,0.19639 0.12504,-0.0177 0.1905,-0.0852 0.1905,-0.19639 z m -3.10529,-2.21548 c -0.0412,-0.21241 -0.23904,-0.24157 -0.23904,-0.0352 0,0.104 0.0547,0.17639 0.13321,0.17639 0.0788,0 0.12203,-0.0576 0.10583,-0.14115 z m -5.06504,-0.0655 c 0,-0.0671 -0.0304,-0.14079 -0.0675,-0.16375 -0.10832,-0.0669 -0.29847,0.0883 -0.23464,0.19162 0.084,0.13593 0.30218,0.1158 0.30218,-0.0279 z m 8.60428,-1.52401 c 0.0524,-0.31604 0.14369,-0.60453 0.20284,-0.64109 0.0592,-0.0366 0.34136,-0.0915 0.6271,-0.12212 0.95355,-0.10211 0.9599,-0.32184 0.0122,-0.42333 -0.28574,-0.0306 -0.56664,-0.0847 -0.62421,-0.12033 -0.0576,-0.0356 -0.14681,-0.30966 -0.19831,-0.60907 -0.12525,-0.72825 -0.20341,-0.86838 -0.31729,-0.56886 -0.048,0.12623 -0.11291,0.42289 -0.14427,0.65924 -0.0657,0.49528 -0.13716,0.55166 -0.80453,0.63481 -0.56522,0.0704 -0.77379,0.17199 -0.59267,0.28863 0.0654,0.0421 0.33207,0.1031 0.59267,0.13557 0.6599,0.0822 0.74115,0.14361 0.8086,0.61104 0.14136,0.97956 0.29231,1.03317 0.43784,0.15551 z m -5.47161,0.41835 c 0,-0.0698 -0.0571,-0.127 -0.127,-0.127 -0.0698,0 -0.127,0.0572 -0.127,0.127 0,0.0699 0.0571,0.127 0.127,0.127 0.0699,0 0.127,-0.0571 0.127,-0.127 z m -3.31381,-0.0704 c 0.12977,-0.15635 -0.0813,-0.44259 -0.27228,-0.3693 -0.13868,0.0532 -0.19023,0.31821 -0.0828,0.42564 0.091,0.091 0.25427,0.0651 0.35508,-0.0563 z m 5.55565,-1.0405 c 0.16503,-0.16502 0.14026,-0.36104 -0.0617,-0.48821 -0.17265,-0.10873 -0.42851,0.0122 -0.46989,0.22212 -0.026,0.13161 0.19081,0.40337 0.32173,0.40337 0.0399,0 0.13434,-0.0618 0.20984,-0.13728 z m -2.41118,-0.83775 c 0,-0.14899 -0.058,-0.22164 -0.20685,-0.25899 -0.11377,-0.0286 -0.24712,-0.027 -0.29633,0.003 -0.14192,0.0877 -0.10392,0.45215 0.0565,0.54193 0.20847,0.11666 0.44668,-0.036 0.44668,-0.28632 z m 1.24079,-2.03429 c 0.0639,-0.16648 -0.0117,-0.24291 -0.17737,-0.17934 -0.0744,0.0285 -0.10804,0.10481 -0.0793,0.17979 0.0642,0.16726 0.19236,0.16704 0.25663,-4.2e-4 z m -4.19204,39.56416 c 0.0565,-0.10478 0.20536,-0.4572 0.33084,-0.78317 0.24785,-0.64392 0.50375,-0.84601 0.50375,-0.39785 0,0.5904 -0.44408,1.37152 -0.77974,1.37152 -0.13738,0 -0.1444,-0.0244 -0.0548,-0.1905 z m 11.92592,0.0273 c 0,-0.1363 0.43786,-0.42948 0.64142,-0.42948 0.34433,0 0.31267,0.16736 -0.064,0.3383 -0.40337,0.18305 -0.57742,0.21054 -0.57742,0.0912 z m -10.11999,-0.51671 c -0.22296,-0.24637 -0.0853,-0.62197 0.24183,-0.65972 0.3022,-0.0349 0.48016,0.11401 0.48016,0.40172 0,0.43076 -0.42741,0.5835 -0.72199,0.258 z m 8.68758,-2.65609 c -0.13484,-0.16247 -0.091,-0.38726 0.0989,-0.50684 0.21719,-0.13677 0.4445,0.0363 0.4445,0.33839 0,0.20024 -0.0398,0.2494 -0.21891,0.27022 -0.12041,0.014 -0.26643,-0.0318 -0.3245,-0.10177 z m -3.43299,-0.21527 c -0.0347,-0.0562 0.22554,-0.22169 0.67053,-0.4263 0.47836,-0.21996 0.88638,-0.48487 1.19203,-0.77394 0.2556,-0.24173 0.48792,-0.41631 0.51628,-0.38795 0.0947,0.0947 -0.045,0.43715 -0.30759,0.75412 -0.42551,0.51361 -1.90188,1.10812 -2.07125,0.83407 z m -5.61345,-0.4741 c -0.2813,-0.11828 -0.35848,-0.26481 -0.35848,-0.68057 0,-0.39697 0.24697,-0.62807 0.67118,-0.62807 0.58924,0 0.8878,0.64875 0.51605,1.12134 -0.20439,0.25984 -0.49826,0.32626 -0.82875,0.1873 z m 4.40402,-0.16426 c -0.20869,-0.15116 -0.24712,-0.45291 -0.0953,-0.74778 0.16676,-0.32379 0.43632,-0.56594 0.63,-0.56594 0.12627,0 0.20403,-0.0649 0.23751,-0.19833 0.0702,-0.27971 1.06629,-0.733 1.61073,-0.733 0.56093,0 0.72852,0.10897 0.72852,0.47371 0,0.90265 -2.41374,2.27676 -3.1115,1.77134 z m 0.91016,-0.59405 c 0,-0.0698 -0.0381,-0.127 -0.0847,-0.127 -0.0466,0 -0.0847,0.0572 -0.0847,0.127 0,0.0699 0.0381,0.127 0.0847,0.127 0.0466,0 0.0847,-0.0571 0.0847,-0.127 z m 7.112,-1.69515 c 0,-0.0708 -0.091,-0.1703 -0.20233,-0.221 -0.19966,-0.091 -0.39033,-0.39448 -0.39033,-0.62134 0,-0.0641 0.0952,-0.22972 0.21166,-0.36807 0.11642,-0.13835 0.21167,-0.32587 0.21167,-0.41671 0,-0.2245 0.28552,-0.46656 0.55033,-0.46656 0.52814,0 0.72073,0.59856 0.33867,1.0526 -0.11642,0.13836 -0.21167,0.31721 -0.21167,0.39746 0,0.0803 -0.0457,0.19162 -0.1016,0.2475 -0.079,0.079 -0.074,0.1016 0.0227,0.1016 0.21101,0 0.72941,-0.40224 0.92384,-0.71684 0.22365,-0.36186 0.34042,-0.38171 0.34042,-0.0579 0,0.35437 -0.42781,0.89356 -0.83975,1.05839 -0.44825,0.17935 -0.85359,0.1845 -0.85359,0.0108 z m 4.28978,-0.2663 c -0.092,-0.092 -0.0644,-0.40977 0.0452,-0.51928 0.25516,-0.25516 0.63281,-0.002 0.54124,0.36296 -0.0412,0.1642 -0.1078,0.21277 -0.29168,0.21277 -0.13105,0 -0.26368,-0.0254 -0.29472,-0.0565 z m -15.43762,-0.41897 c -0.13016,-0.19865 -0.1322,-0.24438 -0.0199,-0.4445 0.10216,-0.18203 0.18656,-0.22308 0.45859,-0.22308 0.28619,0 0.3448,0.0325 0.41406,0.22942 0.0548,0.15577 0.0492,0.29847 -0.0173,0.4445 -0.14116,0.3098 -0.63076,0.30608 -0.83547,-0.006 z m 3.27384,-0.14342 c 0,-0.0695 0.29627,-0.27842 0.67166,-0.47373 0.36941,-0.19219 0.89304,-0.5168 1.16361,-0.72136 0.53303,-0.40297 0.68753,-0.42309 0.49998,-0.0651 -0.19822,0.37834 -0.65322,0.75445 -1.23458,1.0205 -0.70863,0.32429 -1.10067,0.40967 -1.10067,0.23969 z m -1.4691,-0.35436 c -0.24298,-0.24298 -0.0293,-0.664 0.65907,-1.29851 1.18097,-1.08858 2.99145,-1.8485 3.40905,-1.4309 0.11691,0.11692 0.12026,0.1722 0.0244,0.40357 -0.46484,1.12224 -3.54541,2.87297 -4.09254,2.32584 z m 3.23098,-2.05363 c -0.0344,-0.17847 -0.18463,-0.16721 -0.22292,0.0167 -0.016,0.0767 0.0307,0.13147 0.11204,0.13147 0.0872,0 0.12873,-0.0555 0.11088,-0.14816 z m 2.86657,1.53105 c -0.11038,-0.11038 -0.0518,-0.18419 0.31846,-0.40118 0.44783,-0.26244 0.55643,-0.27347 0.55643,-0.0565 0,0.30852 -0.67234,0.66025 -0.87489,0.4577 z m -1.15262,-0.48848 c -0.0692,-0.0834 -0.0749,-0.16986 -0.0181,-0.27516 0.32532,-0.60366 1.45298,-1.01917 1.45298,-0.53539 0,0.31041 -0.81012,0.93214 -1.21458,0.93214 -0.0656,0 -0.16476,-0.0547 -0.22026,-0.12159 z m 9.85688,-1.74478 c -0.0713,-0.1153 0.0983,-0.3146 0.40078,-0.471 0.41828,-0.2163 0.54353,0.006 0.19803,0.35155 -0.21548,0.21548 -0.5039,0.27301 -0.59881,0.11945 z m -15.06233,-0.38334 c -0.18329,-0.1833 -0.16665,-0.51069 0.0363,-0.71362 0.2095,-0.2095 0.35027,-0.21331 0.59387,-0.0161 0.20983,0.16991 0.25121,0.53359 0.0837,0.73546 -0.13806,0.16634 -0.545,0.16304 -0.71384,-0.006 z m 14.51429,-0.12095 c -0.36123,-0.36124 -0.0969,-1.016 0.41021,-1.016 0.30387,0 0.54934,0.26482 0.54934,0.59266 0,0.52333 -0.59642,0.78646 -0.95955,0.42334 z m -2.96333,-1.00663 c -0.30078,-0.0804 -0.51511,-0.53558 -0.41597,-0.88337 0.0959,-0.33635 0.28637,-0.48067 0.63444,-0.48067 0.36148,0 0.62264,0.22946 0.68178,0.59903 0.0801,0.50064 -0.39116,0.90111 -0.90025,0.76501 z m -2.26907,-0.28031 c -0.0559,-0.0559 -0.1016,-0.20066 -0.1016,-0.32173 0,-0.28376 0.14417,-0.42333 0.43729,-0.42333 0.23433,0 0.40938,0.19415 0.40938,0.45405 0,0.31571 -0.51803,0.51805 -0.74507,0.29101 z m -4.71597,-0.94707 c -0.31225,-0.13609 -0.45037,-0.29624 -0.54748,-0.63483 -0.10618,-0.37024 0.0379,-0.80444 0.3556,-1.07179 0.5806,-0.48854 1.50425,-0.041 1.50425,0.72883 0,0.46534 -0.20705,0.83015 -0.55324,0.9748 -0.34784,0.14534 -0.43174,0.14567 -0.75913,0.003 z m 5.81769,-1.08387 c -0.13891,-0.13892 -0.12909,-0.28012 0.0286,-0.41098 0.18774,-0.15582 0.4592,0.10787 0.32693,0.31757 -0.11892,0.18852 -0.23097,0.21796 -0.35553,0.0934 z m -1.64782,-0.75291 c -0.18267,-0.10639 -0.19336,-0.44298 -0.0187,-0.58796 0.099,-0.0822 0.17874,-0.085 0.33867,-0.0122 0.23896,0.10888 0.27336,0.36129 0.0761,0.55854 -0.15422,0.15423 -0.19535,0.15854 -0.39612,0.0416 z m 8.19952,-1.3031 c -0.35286,-0.19085 -0.46793,-0.37874 -0.47099,-0.76899 -0.004,-0.49659 0.35338,-1.14461 0.9136,-1.65703 0.63128,-0.57742 1.18755,-0.8342 1.80948,-0.83527 0.61637,-0.001 0.90323,0.21548 0.97283,0.73433 0.16779,1.25098 -2.18113,3.09153 -3.22492,2.52696 z m 0.94942,-1.06713 c -0.0167,-0.0501 -0.0665,-0.091 -0.11077,-0.091 -0.0442,0 -0.0941,0.041 -0.11078,0.091 -0.0167,0.0501 0.0332,0.091 0.11078,0.091 0.0776,0 0.12745,-0.041 0.11077,-0.091 z m -9.88977,0.64635 c 0,-0.0726 0.0381,-0.132 0.0847,-0.132 0.0466,0 0.0847,0.0358 0.0847,0.0797 0,0.0438 -0.0381,0.10322 -0.0847,0.132 -0.0466,0.0288 -0.0847,-0.007 -0.0847,-0.0797 z m 2.66954,-1.48256 c -0.0731,-0.11822 0.02,-0.25811 0.17179,-0.25811 0.15545,0 0.15668,0.11982 0.003,0.24775 -0.0817,0.0678 -0.13683,0.071 -0.17433,0.0104 z m -0.0449,-1.23177 v -0.381 h 0.37496 c 0.34666,0 0.64104,0.1529 0.64104,0.33296 0,0.0543 -0.8571,0.42904 -0.9812,0.42904 -0.0191,0 -0.0348,-0.17145 -0.0348,-0.381 z m 0.0373,-2.18389 c -0.0231,-0.0603 -0.0315,-0.67938 -0.0185,-1.37583 l 0.0235,-1.26628 0.73733,0.0172 c 0.792,0.0185 1.07133,0.11465 1.42167,0.48959 0.18248,0.1953 0.21166,0.3053 0.21166,0.7978 0,0.75225 -0.25603,1.12428 -0.9067,1.31751 -0.54478,0.16178 -1.41006,0.17358 -1.46898,0.02 z"
         id="path3755"
         inkscape:connector-curvature="0" />
      <path
         style="fill:#751e17;stroke-width:0.08466667"
         d="m 330.70212,356.42006 c -0.0221,-0.0221 -0.41895,-0.0812 -0.88194,-0.13133 -12.78554,-1.38496 -22.74936,-11.2744 -24.16243,-23.98206 -0.0455,-0.40876 -0.10528,-0.77985 -0.13296,-0.82463 -0.0868,-0.14053 -0.0572,-4.04367 0.0343,-4.50866 0.0479,-0.24357 0.13017,-0.8048 0.18282,-1.24718 0.23426,-1.96852 0.90785,-4.54283 1.70486,-6.5156 3.78559,-9.37017 12.44552,-15.85765 22.4931,-16.85043 1.32896,-0.13132 4.36434,-0.10695 5.68486,0.0456 6.21039,0.7176 11.73005,3.38022 16.13144,7.78162 2.79633,2.79633 4.88001,6.035 6.25646,9.72444 0.68094,1.82518 1.2994,4.42236 1.48536,6.23766 0.0501,0.48895 0.13306,1.2319 0.18438,1.651 0.22459,1.83401 -0.14216,5.45786 -0.82954,8.19665 -1.19399,4.75734 -3.60728,8.98588 -7.13692,12.50529 -1.4548,1.45057 -2.46423,2.27589 -4.19401,3.42905 -3.27866,2.18573 -7.17663,3.6766 -10.94831,4.18744 -0.68486,0.0927 -1.50308,0.20748 -1.81827,0.25494 -0.5656,0.0852 -3.97533,0.124 -4.05318,0.0462 z m 5.38826,-1.85367 c 4.14846,-0.64026 7.47606,-1.93469 10.83733,-4.21569 5.40846,-3.67025 9.20544,-9.32259 10.5748,-15.74207 0.41587,-1.9496 0.51624,-3.00652 0.50982,-5.36876 -0.006,-2.30324 -0.12785,-3.49691 -0.552,-5.41867 -0.8065,-3.65421 -2.5986,-7.40001 -4.95671,-10.36037 -0.86649,-1.08779 -2.99231,-3.20494 -4.09424,-4.07755 -3.50566,-2.77607 -7.6475,-4.57358 -12.10701,-5.25429 -1.47198,-0.22469 -4.38753,-0.30864 -5.89703,-0.16981 -3.29997,0.30352 -6.09223,1.08925 -9.04696,2.5458 -2.65275,1.30767 -4.68814,2.77371 -6.81567,4.90915 -4.07747,4.09262 -6.48865,9.0647 -7.24849,14.94707 -0.19265,1.49143 -0.19265,4.43523 0,5.92667 0.74024,5.73059 3.04839,10.60423 6.95216,14.67938 4.09645,4.2763 9.40061,6.90896 15.45166,7.66928 1.28145,0.16101 5.17115,0.11833 6.39234,-0.0701 z m -0.59267,-4.44836 c -0.40342,-0.17275 -0.58446,-0.5968 -0.45499,-1.06572 0.0998,-0.36145 0.35807,-0.55078 0.75132,-0.55078 0.16555,0 0.38419,0.0583 0.48587,0.1295 0.21266,0.14895 0.36025,0.59722 0.30014,0.91163 -0.083,0.43414 -0.67599,0.74938 -1.08234,0.57537 z m -11.9014,-0.37283 c -4.70409,-2.12804 -8.47832,-5.78934 -10.7517,-10.43 -1.52553,-3.11408 -2.20804,-6.09751 -2.20804,-9.652 0,-3.71504 0.73523,-6.85127 2.34544,-10.00492 2.89705,-5.67394 8.07795,-9.819 14.21466,-11.37263 2.07182,-0.52453 2.9969,-0.6325 5.42237,-0.63288 2.24563,-3.4e-4 3.096,0.0859 4.95302,0.5026 5.91952,1.32819 11.13881,5.20795 14.22058,10.57087 1.60888,2.79978 2.70578,6.47915 2.81883,9.45529 l 0.0209,0.55034 -1.06555,0.0593 c -1.3453,0.0749 -3.69727,0.41713 -5.07279,0.73813 -0.86148,0.20103 -1.0792,0.22683 -1.17053,0.1387 -0.0923,-0.089 -0.0454,-0.1474 0.26355,-0.32848 0.48365,-0.28343 0.87588,-0.73388 1.15242,-1.32348 0.3042,-0.64856 0.31073,-1.77098 0.0142,-2.44052 -0.3562,-0.80427 -1.20815,-1.39085 -2.37513,-1.63532 -0.6333,-0.13267 -4.25336,-0.20253 -4.47059,-0.0863 l -0.18558,0.0993 -0.022,3.95564 -0.022,3.95563 -0.67734,0.35693 c -0.37253,0.19631 -0.70591,0.35824 -0.74083,0.35983 -0.0349,0.002 -0.064,-1.87352 -0.0647,-4.16692 -6.7e-4,-2.29341 -0.0241,-4.25556 -0.0522,-4.36034 -0.0497,-0.18544 -0.0809,-0.1905 -1.17666,-0.1905 h -1.12559 l -0.19803,0.24389 c -0.10892,0.13413 -0.82668,1.50259 -1.59503,3.04101 -0.76835,1.53843 -1.42143,2.79076 -1.45129,2.78295 -0.0299,-0.008 -0.71049,-1.30958 -1.51251,-2.89285 -0.80202,-1.58326 -1.5356,-2.94641 -1.63018,-3.0292 -0.14937,-0.13076 -0.31774,-0.14745 -1.28149,-0.127 l -1.10953,0.0235 -0.0219,4.81647 c -0.0158,3.48681 0.005,4.84832 0.0739,4.93183 0.07,0.0844 0.3422,0.11536 1.01372,0.11536 0.8349,0 0.92629,-0.0155 1.00968,-0.17132 0.0613,-0.1145 0.0875,-1.09929 0.079,-2.96881 -0.007,-1.53862 0.002,-2.81177 0.0191,-2.82924 0.0175,-0.0175 0.56884,1.00417 1.22527,2.27031 1.30868,2.52417 1.4329,2.68318 2.09593,2.68293 0.74913,-2.5e-4 0.80864,-0.0734 2.10208,-2.5822 0.64821,-1.2573 1.21388,-2.3222 1.25706,-2.36643 0.0483,-0.0495 0.0789,1.02671 0.0797,2.794 6.8e-4,1.58093 0.0233,2.95678 0.0503,3.05742 0.0418,0.15599 -0.0677,0.26126 -0.74199,0.71325 -3.24989,2.17836 -6.30047,5.12649 -8.613,8.32373 -1.36046,1.88095 -2.83994,4.48672 -3.70573,6.52681 -0.19791,0.46634 -0.4093,0.85774 -0.46976,0.86978 -0.0605,0.012 -0.47445,-0.14301 -0.91999,-0.34456 z m -5.29286,-16.02706 c 0.11859,-0.0455 0.13393,-0.3903 0.13393,-3.01066 0,-1.83348 0.0304,-2.94049 0.0799,-2.9099 0.0439,0.0272 0.59417,1.04938 1.22272,2.27159 0.62856,1.22222 1.24337,2.31667 1.36626,2.43212 0.18932,0.17786 0.30538,0.20991 0.76013,0.20991 0.45372,0 0.57099,-0.0322 0.75856,-0.20844 0.12202,-0.11463 0.74422,-1.22854 1.38265,-2.47535 0.63843,-1.24681 1.18936,-2.26744 1.22429,-2.26807 0.0349,-5.9e-4 0.0635,1.30569 0.0635,2.90293 0,2.14582 0.0265,2.93059 0.1016,3.00566 0.11561,0.11561 1.73533,0.14222 1.90993,0.0314 0.084,-0.0533 0.10191,-1.0963 0.0847,-4.93054 l -0.0219,-4.8629 -1.08033,-0.0237 c -0.60941,-0.0134 -1.14941,0.0133 -1.2388,0.0611 -0.0887,0.0474 -0.81743,1.39138 -1.65419,3.05053 -0.82264,1.63115 -1.51115,2.96572 -1.53001,2.96572 -0.0189,0 -0.70737,-1.33457 -1.53001,-2.96572 -0.83677,-1.65915 -1.56553,-3.00309 -1.65419,-3.05053 -0.0894,-0.0479 -0.6294,-0.0745 -1.23881,-0.0611 l -1.08033,0.0237 -0.0219,4.8629 c -0.0172,3.83424 6.7e-4,4.87721 0.0847,4.93054 0.12429,0.0789 1.6804,0.0945 1.87761,0.0188 z m 9.22433,-13.64344 c 0.0245,-0.12806 0.0691,-0.39526 0.099,-0.59377 0.0634,-0.42006 0.1617,-0.48927 0.80939,-0.56996 0.88729,-0.11054 0.87834,-0.32088 -0.0181,-0.42492 -0.26764,-0.0311 -0.5423,-0.10067 -0.61036,-0.15467 -0.068,-0.054 -0.16492,-0.3417 -0.21527,-0.63934 -0.0503,-0.29764 -0.11217,-0.5618 -0.1374,-0.58702 -0.0954,-0.0954 -0.20174,0.12906 -0.28946,0.61063 -0.0499,0.27414 -0.13094,0.54683 -0.18002,0.60596 -0.0491,0.0591 -0.30906,0.13303 -0.57774,0.16422 -0.87844,0.10195 -0.90798,0.31777 -0.0582,0.42523 0.70513,0.0892 0.69627,0.0815 0.81056,0.7008 0.0577,0.31277 0.12119,0.59725 0.14105,0.63217 0.0763,0.13419 0.18384,0.0538 0.22651,-0.16933 z m -1.68207,-0.82434 c 0,-0.18679 -0.26322,-0.27981 -0.40124,-0.14179 -0.1423,0.1423 -0.002,0.36721 0.21036,0.33707 0.1249,-0.0177 0.19088,-0.0852 0.19088,-0.19528 z m -0.57843,-0.85439 c 0.0282,-0.0735 -0.003,-0.18814 -0.07,-0.25483 -0.1042,-0.1042 -0.1441,-0.10456 -0.28355,-0.003 -0.13793,0.10085 -0.14532,0.1391 -0.0493,0.25483 0.14403,0.17354 0.33676,0.17479 0.40284,0.003 z m 12.17776,-0.84011 c 0,-0.11114 -0.0655,-0.17863 -0.1905,-0.19638 -0.15626,-0.0222 -0.1905,0.0131 -0.1905,0.19638 0,0.1833 0.0342,0.21859 0.1905,0.19639 0.12504,-0.0177 0.1905,-0.0852 0.1905,-0.19639 z m -3.10529,-2.21548 c -0.0412,-0.21241 -0.23904,-0.24157 -0.23904,-0.0352 0,0.104 0.0547,0.17639 0.13321,0.17639 0.0788,0 0.12203,-0.0576 0.10583,-0.14115 z m -5.06504,-0.0655 c 0,-0.0671 -0.0304,-0.14079 -0.0675,-0.16375 -0.10832,-0.0669 -0.29847,0.0883 -0.23464,0.19162 0.084,0.13593 0.30218,0.1158 0.30218,-0.0279 z m 8.60428,-1.52401 c 0.0524,-0.31604 0.14369,-0.60453 0.20284,-0.64109 0.0592,-0.0366 0.34136,-0.0915 0.6271,-0.12212 0.95355,-0.10211 0.9599,-0.32184 0.0122,-0.42333 -0.28574,-0.0306 -0.56664,-0.0847 -0.62421,-0.12033 -0.0576,-0.0356 -0.14681,-0.30966 -0.19831,-0.60907 -0.12525,-0.72825 -0.20341,-0.86838 -0.31729,-0.56886 -0.048,0.12623 -0.11291,0.42289 -0.14427,0.65924 -0.0657,0.49528 -0.13716,0.55166 -0.80453,0.63481 -0.56522,0.0704 -0.77379,0.17199 -0.59267,0.28863 0.0654,0.0421 0.33207,0.1031 0.59267,0.13557 0.6599,0.0822 0.74115,0.14361 0.8086,0.61104 0.14136,0.97956 0.29231,1.03317 0.43784,0.15551 z m -5.47161,0.41835 c 0,-0.0698 -0.0571,-0.127 -0.127,-0.127 -0.0698,0 -0.127,0.0572 -0.127,0.127 0,0.0699 0.0571,0.127 0.127,0.127 0.0699,0 0.127,-0.0571 0.127,-0.127 z m -3.31381,-0.0704 c 0.12977,-0.15635 -0.0813,-0.44259 -0.27228,-0.3693 -0.13868,0.0532 -0.19023,0.31821 -0.0828,0.42564 0.091,0.091 0.25427,0.0651 0.35508,-0.0563 z m 5.55565,-1.0405 c 0.16503,-0.16502 0.14026,-0.36104 -0.0617,-0.48821 -0.17265,-0.10873 -0.42851,0.0122 -0.46989,0.22212 -0.026,0.13161 0.19081,0.40337 0.32173,0.40337 0.0399,0 0.13434,-0.0618 0.20984,-0.13728 z m -2.41118,-0.83775 c 0,-0.14899 -0.058,-0.22164 -0.20685,-0.25899 -0.11377,-0.0286 -0.24712,-0.027 -0.29633,0.003 -0.14192,0.0877 -0.10392,0.45215 0.0565,0.54193 0.20847,0.11666 0.44668,-0.036 0.44668,-0.28632 z m 1.24079,-2.03429 c 0.0639,-0.16648 -0.0117,-0.24291 -0.17737,-0.17934 -0.0744,0.0285 -0.10804,0.10481 -0.0793,0.17979 0.0642,0.16726 0.19236,0.16704 0.25663,-4.2e-4 z m -3.91943,39.30522 c 0.027,-0.1075 0.11501,-0.34562 0.19561,-0.52917 0.12254,-0.27903 0.15152,-0.30357 0.17683,-0.14973 0.0289,0.17595 -0.26795,0.87434 -0.3717,0.87434 -0.0274,0 -0.0277,-0.0879 -7.6e-4,-0.19544 z m 16.90264,-2.96072 c 0,-0.21175 0.26486,-0.48451 0.47047,-0.48451 0.28402,0 0.25934,0.10921 -0.0838,0.37095 -0.32828,0.2504 -0.38665,0.26754 -0.38665,0.11356 z m -9.0668,-0.61154 c 0.29858,-0.16089 0.6318,-0.37607 0.7405,-0.47819 0.25688,-0.24132 0.33452,-0.16049 0.11451,0.11921 -0.19372,0.24628 -0.96182,0.65632 -1.224,0.65342 -0.10639,-0.001 0.0368,-0.11545 0.36899,-0.29444 z m -2.1727,-0.26316 c -0.19803,-0.0884 -0.11622,-0.52342 0.15694,-0.83453 0.14452,-0.1646 0.31463,-0.29928 0.37802,-0.29928 0.0634,0 0.15606,-0.0763 0.20594,-0.16945 0.20189,-0.37724 1.48699,-0.83612 1.90087,-0.67876 0.58674,0.22308 -0.0926,1.19786 -1.19401,1.71327 -0.52889,0.2475 -1.21153,0.37421 -1.44776,0.26875 z m 0.91017,-0.45148 c 0,-0.0904 -0.0414,-0.18994 -0.092,-0.22122 -0.12947,-0.08 -0.2793,0.0936 -0.21819,0.25287 0.0726,0.18913 0.31023,0.16488 0.31023,-0.0317 z m 7.74851,-2.00648 c 0.18544,-0.12291 0.44655,-0.32294 0.58026,-0.4445 l 0.24309,-0.22102 -0.14137,0.27891 c -0.15307,0.30199 -0.58207,0.60927 -0.85131,0.60978 -0.12435,2.5e-4 -0.0805,-0.0576 0.16933,-0.22317 z m -11.67946,-0.41756 c -0.0732,-0.0732 -0.13305,-0.18476 -0.13305,-0.24796 0,-0.10944 0.21949,-0.381 0.30795,-0.381 0.16704,0 0.36938,0.20871 0.36938,0.381 0,0.11673 -0.0708,0.24362 -0.16376,0.29336 -0.2118,0.11335 -0.22312,0.112 -0.38052,-0.0454 z m 3.59228,-0.32335 c 0,-0.0245 0.18098,-0.14839 0.40217,-0.27541 0.22119,-0.12701 0.56409,-0.34 0.762,-0.4733 0.40688,-0.27406 0.47728,-0.20664 0.127,0.12161 -0.31519,0.29538 -1.29117,0.76939 -1.29117,0.6271 z m 4.318,-0.85377 c 0,-0.0221 0.1143,-0.0993 0.254,-0.1715 0.25763,-0.13323 0.33779,-0.0753 0.1524,0.11006 -0.0976,0.0976 -0.4064,0.1443 -0.4064,0.0614 z m 8.72067,-2.23225 c 0,-0.0391 0.0952,-0.11447 0.21167,-0.16752 0.22408,-0.1021 0.2798,-0.0327 0.11006,0.137 -0.11657,0.11657 -0.32173,0.13604 -0.32173,0.0305 z m -15.18356,-0.32403 c -0.10061,-0.10062 -0.0598,-0.42808 0.0665,-0.53285 0.14799,-0.12283 0.43482,-0.0471 0.50393,0.13298 0.11333,0.29533 -0.3501,0.62019 -0.57043,0.39987 z m 14.51048,-0.1501 c -0.13403,-0.16149 -0.0811,-0.55909 0.0885,-0.66522 0.20348,-0.12731 0.55705,-0.005 0.61394,0.21277 0.10865,0.4155 -0.43985,0.76881 -0.70241,0.45245 z m 4.18243,-0.42574 c -0.0675,-0.16149 -0.12268,-0.35321 -0.12268,-0.42605 0,-0.28692 0.25287,-0.71474 0.49712,-0.84104 0.29177,-0.15089 0.60354,-0.17468 0.60354,-0.0461 0,0.22664 -0.63435,1.60677 -0.73853,1.60677 -0.0642,0 -0.17198,-0.13213 -0.23945,-0.29362 z m 0.30065,-1.6352 c 0,-0.0364 0.2286,-0.29237 0.508,-0.56885 0.50922,-0.50391 0.65402,-0.49454 0.33912,0.0219 -0.21328,0.34982 -0.84712,0.75903 -0.84712,0.54691 z m -14.57697,-0.2285 c -0.66908,-0.37575 -0.38213,-1.56802 0.37737,-1.56802 0.51584,0 0.81563,0.30024 0.81957,0.82078 0.005,0.65419 -0.64268,1.05851 -1.19694,0.74724 z m 12.54497,-3.06299 c -0.30409,-0.12241 -0.42333,-0.31409 -0.42333,-0.68052 0,-1.03372 1.40429,-2.32066 2.55116,-2.33796 0.37391,-0.006 0.46329,0.0262 0.63532,0.22616 0.25334,0.29453 0.25173,0.57469 -0.006,1.12931 -0.24882,0.53443 -0.86383,1.14218 -1.44083,1.42384 -0.43558,0.21263 -1.08742,0.33111 -1.31583,0.23917 z m 0.90399,-0.92657 c 0.0722,-0.1881 -0.1533,-0.31268 -0.30017,-0.16585 -0.0637,0.0637 -0.0901,0.15757 -0.0585,0.2086 0.0852,0.13782 0.29918,0.11231 0.35868,-0.0427 z m 1.63953,0.71975 c -0.004,-0.15702 0.46869,-0.83821 0.58175,-0.83821 0.14034,0 -0.008,0.32781 -0.29428,0.65232 -0.187,0.21163 -0.28515,0.2751 -0.28747,0.18589 z m -8.97819,-2.8645 v -0.34437 h 0.37496 c 0.24034,0 0.42674,0.0518 0.51921,0.14426 0.13591,0.13591 0.12521,0.15236 -0.1848,0.28402 -0.7063,0.29997 -0.70937,0.2996 -0.70937,-0.0839 z m 0.0373,-2.14726 c -0.0231,-0.0603 -0.0315,-0.67938 -0.0185,-1.37583 l 0.0235,-1.26628 0.73733,0.0172 c 0.792,0.0185 1.07133,0.11465 1.42167,0.48959 0.18248,0.1953 0.21166,0.3053 0.21166,0.7978 0,0.75225 -0.25603,1.12428 -0.9067,1.31751 -0.54478,0.16178 -1.41006,0.17358 -1.46898,0.02 z"
         id="path3753"
         inkscape:connector-curvature="0" />
      <path
         style="fill:#2f2f2f;stroke-width:0.08466667"
         d="m 330.70212,356.42006 c -0.0221,-0.0221 -0.41895,-0.0812 -0.88194,-0.13133 -12.78554,-1.38496 -22.74936,-11.2744 -24.16243,-23.98206 -0.0455,-0.40876 -0.10528,-0.77985 -0.13296,-0.82463 -0.0868,-0.14053 -0.0572,-4.04367 0.0343,-4.50866 0.0479,-0.24357 0.13017,-0.8048 0.18282,-1.24718 0.23426,-1.96852 0.90785,-4.54283 1.70486,-6.5156 3.78559,-9.37017 12.44552,-15.85765 22.4931,-16.85043 1.32896,-0.13132 4.36434,-0.10695 5.68486,0.0456 6.21039,0.7176 11.73005,3.38022 16.13144,7.78162 2.79633,2.79633 4.88001,6.035 6.25646,9.72444 0.68094,1.82518 1.2994,4.42236 1.48536,6.23766 0.0501,0.48895 0.13306,1.2319 0.18438,1.651 0.22459,1.83401 -0.14216,5.45786 -0.82954,8.19665 -1.19399,4.75734 -3.60728,8.98588 -7.13692,12.50529 -1.4548,1.45057 -2.46423,2.27589 -4.19401,3.42905 -3.27866,2.18573 -7.17663,3.6766 -10.94831,4.18744 -0.68486,0.0927 -1.50308,0.20748 -1.81827,0.25494 -0.5656,0.0852 -3.97533,0.124 -4.05318,0.0462 z m 5.38826,-1.85367 c 4.14846,-0.64026 7.47606,-1.93469 10.83733,-4.21569 5.40846,-3.67025 9.20544,-9.32259 10.5748,-15.74207 0.41587,-1.9496 0.51624,-3.00652 0.50982,-5.36876 -0.006,-2.30324 -0.12785,-3.49691 -0.552,-5.41867 -0.8065,-3.65421 -2.5986,-7.40001 -4.95671,-10.36037 -0.86649,-1.08779 -2.99231,-3.20494 -4.09424,-4.07755 -3.50566,-2.77607 -7.6475,-4.57358 -12.10701,-5.25429 -1.47198,-0.22469 -4.38753,-0.30864 -5.89703,-0.16981 -3.29997,0.30352 -6.09223,1.08925 -9.04696,2.5458 -2.65275,1.30767 -4.68814,2.77371 -6.81567,4.90915 -4.07747,4.09262 -6.48865,9.0647 -7.24849,14.94707 -0.19265,1.49143 -0.19265,4.43523 0,5.92667 0.74024,5.73059 3.04839,10.60423 6.95216,14.67938 4.09645,4.2763 9.40061,6.90896 15.45166,7.66928 1.28145,0.16101 5.17115,0.11833 6.39234,-0.0701 z m -12.49407,-4.82233 c -4.69282,-2.11635 -8.47831,-5.78818 -10.7517,-10.42886 -1.52553,-3.11408 -2.20804,-6.09751 -2.20804,-9.652 0,-3.71504 0.73523,-6.85127 2.34544,-10.00492 2.89705,-5.67394 8.07795,-9.819 14.21466,-11.37263 2.07182,-0.52453 2.9969,-0.6325 5.42237,-0.63288 2.24563,-3.4e-4 3.096,0.0859 4.95302,0.5026 5.91952,1.32819 11.13881,5.20795 14.22058,10.57087 1.59551,2.77652 2.68157,6.39171 2.81507,9.37063 l 0.0247,0.55033 -1.05834,0.0556 c -1.69227,0.0889 -3.86891,0.42032 -5.53655,0.84311 -0.80222,0.20338 -0.99684,0.11389 -0.44966,-0.20678 0.48292,-0.28301 0.87524,-0.73371 1.15165,-1.32304 0.3042,-0.64856 0.31073,-1.77098 0.0142,-2.44052 -0.3562,-0.80427 -1.20815,-1.39085 -2.37513,-1.63532 -0.63517,-0.13306 -4.2534,-0.20251 -4.47143,-0.0858 l -0.18641,0.0998 v 3.89083 3.89084 l -0.762,0.3827 -0.762,0.3827 -10e-4,-4.12835 c -6.8e-4,-2.27059 -0.0241,-4.21407 -0.0522,-4.31885 -0.0497,-0.18544 -0.0809,-0.1905 -1.17665,-0.1905 h -1.1256 l -0.19803,0.24389 c -0.10892,0.13413 -0.82668,1.50259 -1.59503,3.04101 -0.76835,1.53843 -1.42143,2.79076 -1.45129,2.78295 -0.0299,-0.008 -0.71049,-1.30958 -1.51251,-2.89285 -0.80202,-1.58326 -1.5356,-2.94641 -1.63018,-3.0292 -0.14937,-0.13076 -0.31774,-0.14745 -1.28149,-0.127 l -1.10953,0.0235 -0.0219,4.81647 c -0.0158,3.48681 0.005,4.84832 0.0739,4.93183 0.07,0.0844 0.3422,0.11536 1.01372,0.11536 0.8349,0 0.92629,-0.0155 1.00968,-0.17132 0.0613,-0.1145 0.0875,-1.09929 0.079,-2.96881 -0.007,-1.53862 0.002,-2.81177 0.0191,-2.82924 0.0175,-0.0175 0.56884,1.00417 1.22527,2.27031 1.30868,2.52417 1.4329,2.68318 2.09593,2.68293 0.74913,-2.5e-4 0.80864,-0.0734 2.10208,-2.5822 0.64821,-1.2573 1.21388,-2.3222 1.25706,-2.36643 0.0483,-0.0495 0.0834,1.05101 0.0912,2.8575 0.007,1.61586 0.0165,2.97411 0.0212,3.01832 0.005,0.0442 -0.45524,0.39665 -1.02201,0.78317 -5.16503,3.52249 -9.44745,8.66879 -11.93866,14.34701 -0.31355,0.71469 -0.59082,1.29925 -0.61614,1.29902 -0.0253,-2.5e-4 -0.41058,-0.1648 -0.85612,-0.36573 z m -5.29286,-16.02592 c 0.11859,-0.0455 0.13393,-0.3903 0.13393,-3.01066 0,-1.83348 0.0304,-2.94049 0.0799,-2.9099 0.0439,0.0272 0.59417,1.04938 1.22272,2.27159 0.62856,1.22222 1.24337,2.31667 1.36626,2.43212 0.18932,0.17786 0.30538,0.20991 0.76013,0.20991 0.45372,0 0.57099,-0.0322 0.75856,-0.20844 0.12202,-0.11463 0.74422,-1.22854 1.38265,-2.47535 0.63843,-1.24681 1.18936,-2.26744 1.22429,-2.26807 0.0349,-5.9e-4 0.0635,1.30569 0.0635,2.90293 0,2.14582 0.0265,2.93059 0.1016,3.00566 0.11561,0.11561 1.73533,0.14222 1.90993,0.0314 0.084,-0.0533 0.10191,-1.0963 0.0847,-4.93054 l -0.0219,-4.8629 -1.08033,-0.0237 c -0.60941,-0.0134 -1.14941,0.0133 -1.2388,0.0611 -0.0887,0.0474 -0.81743,1.39138 -1.65419,3.05053 -0.82264,1.63115 -1.51115,2.96572 -1.53001,2.96572 -0.0189,0 -0.70737,-1.33457 -1.53001,-2.96572 -0.83677,-1.65915 -1.56553,-3.00309 -1.65419,-3.05053 -0.0894,-0.0479 -0.6294,-0.0745 -1.23881,-0.0611 l -1.08033,0.0237 -0.0219,4.8629 c -0.0172,3.83424 6.7e-4,4.87721 0.0847,4.93054 0.12429,0.0789 1.6804,0.0945 1.87761,0.0188 z m 9.22433,-13.64344 c 0.0245,-0.12806 0.0691,-0.39526 0.099,-0.59377 0.0634,-0.42006 0.1617,-0.48927 0.80939,-0.56996 0.88729,-0.11054 0.87834,-0.32088 -0.0181,-0.42492 -0.26764,-0.0311 -0.5423,-0.10067 -0.61036,-0.15467 -0.068,-0.054 -0.16492,-0.3417 -0.21527,-0.63934 -0.0503,-0.29764 -0.11217,-0.5618 -0.1374,-0.58702 -0.0954,-0.0954 -0.20174,0.12906 -0.28946,0.61063 -0.0499,0.27414 -0.13094,0.54683 -0.18002,0.60596 -0.0491,0.0591 -0.30906,0.13303 -0.57774,0.16422 -0.87844,0.10195 -0.90798,0.31777 -0.0582,0.42523 0.70513,0.0892 0.69627,0.0815 0.81056,0.7008 0.0577,0.31277 0.12119,0.59725 0.14105,0.63217 0.0763,0.13419 0.18384,0.0538 0.22651,-0.16933 z m -1.68207,-0.82434 c 0,-0.18679 -0.26322,-0.27981 -0.40124,-0.14179 -0.1423,0.1423 -0.002,0.36721 0.21036,0.33707 0.1249,-0.0177 0.19088,-0.0852 0.19088,-0.19528 z m -0.57843,-0.85439 c 0.0282,-0.0735 -0.003,-0.18814 -0.07,-0.25483 -0.1042,-0.1042 -0.1441,-0.10456 -0.28355,-0.003 -0.13793,0.10085 -0.14532,0.1391 -0.0493,0.25483 0.14403,0.17354 0.33676,0.17479 0.40284,0.003 z m 12.17776,-0.84011 c 0,-0.11114 -0.0655,-0.17863 -0.1905,-0.19638 -0.15626,-0.0222 -0.1905,0.0131 -0.1905,0.19638 0,0.1833 0.0342,0.21859 0.1905,0.19639 0.12504,-0.0177 0.1905,-0.0852 0.1905,-0.19639 z m -3.10529,-2.21548 c -0.0412,-0.21241 -0.23904,-0.24157 -0.23904,-0.0352 0,0.104 0.0547,0.17639 0.13321,0.17639 0.0788,0 0.12203,-0.0576 0.10583,-0.14115 z m -5.06504,-0.0655 c 0,-0.0671 -0.0304,-0.14079 -0.0675,-0.16375 -0.10832,-0.0669 -0.29847,0.0883 -0.23464,0.19162 0.084,0.13593 0.30218,0.1158 0.30218,-0.0279 z m 8.60428,-1.52401 c 0.0524,-0.31604 0.14369,-0.60453 0.20284,-0.64109 0.0592,-0.0366 0.34136,-0.0915 0.6271,-0.12212 0.95355,-0.10211 0.9599,-0.32184 0.0122,-0.42333 -0.28574,-0.0306 -0.56664,-0.0847 -0.62421,-0.12033 -0.0576,-0.0356 -0.14681,-0.30966 -0.19831,-0.60907 -0.12525,-0.72825 -0.20341,-0.86838 -0.31729,-0.56886 -0.048,0.12623 -0.11291,0.42289 -0.14427,0.65924 -0.0657,0.49528 -0.13716,0.55166 -0.80453,0.63481 -0.56522,0.0704 -0.77379,0.17199 -0.59267,0.28863 0.0654,0.0421 0.33207,0.1031 0.59267,0.13557 0.6599,0.0822 0.74115,0.14361 0.8086,0.61104 0.14136,0.97956 0.29231,1.03317 0.43784,0.15551 z m -5.47161,0.41835 c 0,-0.0698 -0.0571,-0.127 -0.127,-0.127 -0.0698,0 -0.127,0.0572 -0.127,0.127 0,0.0699 0.0571,0.127 0.127,0.127 0.0699,0 0.127,-0.0571 0.127,-0.127 z m -3.31381,-0.0704 c 0.12977,-0.15635 -0.0813,-0.44259 -0.27228,-0.3693 -0.13868,0.0532 -0.19023,0.31821 -0.0828,0.42564 0.091,0.091 0.25427,0.0651 0.35508,-0.0563 z m 5.55565,-1.0405 c 0.16503,-0.16502 0.14026,-0.36104 -0.0617,-0.48821 -0.17265,-0.10873 -0.42851,0.0122 -0.46989,0.22212 -0.026,0.13161 0.19081,0.40337 0.32173,0.40337 0.0399,0 0.13434,-0.0618 0.20984,-0.13728 z m -2.41118,-0.83775 c 0,-0.14899 -0.058,-0.22164 -0.20685,-0.25899 -0.11377,-0.0286 -0.24712,-0.027 -0.29633,0.003 -0.14192,0.0877 -0.10392,0.45215 0.0565,0.54193 0.20847,0.11666 0.44668,-0.036 0.44668,-0.28632 z m 1.24079,-2.03429 c 0.0639,-0.16648 -0.0117,-0.24291 -0.17737,-0.17934 -0.0744,0.0285 -0.10804,0.10481 -0.0793,0.17979 0.0642,0.16726 0.19236,0.16704 0.25663,-4.2e-4 z m 19.04594,28.2754 c -0.0789,-0.20571 -0.061,-0.70589 0.0315,-0.87874 0.0888,-0.16586 0.56594,-0.37197 0.62814,-0.27132 0.0506,0.0819 -0.45566,1.28398 -0.54078,1.28398 -0.0371,0 -0.0906,-0.0603 -0.11885,-0.13392 z m -8.34873,-8.04155 c 0,-0.28634 0.006,-0.29117 0.35984,-0.2899 0.40425,0.001 0.66057,0.11686 0.52846,0.23793 -0.0462,0.0423 -0.26494,0.13684 -0.48613,0.21005 l -0.40217,0.13311 z m 0.0373,-2.09408 c -0.0231,-0.0603 -0.0315,-0.67938 -0.0185,-1.37583 l 0.0235,-1.26628 0.73733,0.0172 c 0.792,0.0185 1.07133,0.11465 1.42167,0.48959 0.18248,0.1953 0.21166,0.3053 0.21166,0.7978 0,0.75225 -0.25603,1.12428 -0.9067,1.31751 -0.54478,0.16178 -1.41006,0.17358 -1.46898,0.02 z"
         id="path3751"
         inkscape:connector-curvature="0" />
      <path
         style="fill:#000000;stroke-width:0.08466667"
         d="m 331.26438,356.37553 c 0.19876,-0.0506 0.13377,-0.0668 -0.29887,-0.0747 -2.08109,-0.0377 -5.45665,-0.75511 -7.9138,-1.68193 -7.29315,-2.75089 -13.22531,-8.73819 -15.83345,-15.9806 -0.85575,-2.37629 -1.53988,-5.57082 -1.57399,-7.34965 -0.007,-0.34749 -0.0227,-0.3956 -0.0762,-0.2285 -0.0381,0.119 -0.0678,-0.6409 -0.0678,-1.73567 0,-1.07103 0.0272,-1.85208 0.0605,-1.73566 0.04,0.13976 0.0802,-0.0808 0.11854,-0.64929 0.12287,-1.82394 0.69344,-4.50931 1.37317,-6.46272 1.29841,-3.73137 3.4135,-7.15119 6.17229,-9.97975 4.48147,-4.5948 10.09624,-7.31501 16.64259,-8.06292 1.46773,-0.16769 4.5535,-0.12397 6.13833,0.087 6.06538,0.80727 11.43973,3.44621 15.70512,7.7116 4.46567,4.46567 7.17476,10.23966 7.79182,16.60701 0.13362,1.37871 0.0634,4.83555 -0.12528,6.16777 -0.33714,2.38046 -1.14825,5.21315 -2.10322,7.34522 -3.88172,8.66633 -12.02342,14.65945 -21.47758,15.80966 -0.58069,0.0707 -1.30459,0.13296 -1.60867,0.13847 -0.43263,0.008 -0.49762,0.0241 -0.29886,0.0747 0.14366,0.0366 -0.42642,0.0646 -1.31233,0.0646 -0.88591,0 -1.456,-0.0281 -1.31233,-0.0646 z m 5.03799,-1.77012 c 10.65556,-1.63272 19.06991,-9.55932 21.28517,-20.05136 0.38933,-1.84397 0.50356,-3.03027 0.50356,-5.22952 0,-4.23574 -0.79743,-7.63926 -2.66986,-11.39525 -3.15016,-6.31903 -8.72547,-11.01546 -15.51701,-13.07093 -3.9474,-1.19469 -8.59935,-1.38006 -12.65762,-0.50437 -3.12312,0.6739 -6.06986,1.92017 -8.72457,3.68988 -1.57098,1.04726 -2.4057,1.72156 -3.75195,3.03091 -4.98885,4.85207 -7.68826,11.25969 -7.68826,18.24976 0,6.9822 2.67114,13.34707 7.64188,18.20931 4.35235,4.25736 9.47922,6.61809 15.77867,7.26548 0.18626,0.0191 1.31021,0.0228 2.49766,0.008 1.65025,-0.0205 2.42842,-0.068 3.30233,-0.20195 z m -13.34941,-5.25612 c -3.5658,-1.76942 -6.39674,-4.2521 -8.59362,-7.53642 -3.89912,-5.82919 -4.76142,-13.23931 -2.31179,-19.86619 0.73508,-1.98856 2.15214,-4.45543 3.56541,-6.20678 0.79691,-0.98755 2.18734,-2.36464 3.24775,-3.21659 1.3031,-1.04693 2.48515,-1.79287 4.10633,-2.59134 2.15603,-1.06189 4.24646,-1.70486 6.77334,-2.08331 1.17907,-0.17659 4.82353,-0.15258 6.05366,0.0399 4.33887,0.67886 8.24596,2.49509 11.40375,5.30109 4.28128,3.80434 6.84457,8.94858 7.34854,14.74772 l 0.056,0.64483 -0.87399,0.0594 c -1.40952,0.0958 -3.3326,0.36208 -4.69028,0.64944 -0.69504,0.14711 -1.35896,0.28311 -1.47538,0.30222 l -0.21167,0.0347 0.21167,-0.15147 c 0.56623,-0.40521 1.00964,-0.90832 1.23577,-1.40214 0.20935,-0.45717 0.24153,-0.62985 0.2404,-1.28984 -0.002,-0.95427 -0.2073,-1.47049 -0.81072,-2.03492 -0.86489,-0.80901 -1.58374,-0.96729 -4.40208,-0.96928 l -2.08562,-10e-4 -0.051,0.1905 c -0.0281,0.10477 -0.0518,1.905 -0.0527,4.0005 l -0.002,3.81 -0.61338,0.29034 c -0.33737,0.1597 -0.65149,0.29305 -0.69806,0.29634 -0.0549,0.004 -0.0996,-1.49787 -0.127,-4.26968 l -0.0423,-4.27567 -1.13283,-0.0237 c -0.88016,-0.0184 -1.17287,0.004 -1.31234,0.0989 -0.10173,0.0695 -0.8031,1.36963 -1.61883,3.00082 -0.79164,1.583 -1.46408,2.87198 -1.49431,2.8644 -0.0302,-0.008 -0.69156,-1.27108 -1.4696,-2.80778 -0.77805,-1.5367 -1.50791,-2.87973 -1.62192,-2.9845 -0.19333,-0.17768 -0.28332,-0.1905 -1.3365,-0.1905 -0.9516,0 -1.13731,0.0211 -1.18062,0.13392 -0.0283,0.0737 -0.0514,2.30117 -0.0514,4.95002 0,4.67488 0.005,4.81867 0.16377,4.90374 0.17513,0.0937 1.61459,0.11927 1.93173,0.0343 l 0.1905,-0.0511 v -2.82646 c 0,-1.55455 0.0298,-2.82645 0.0662,-2.82645 0.0364,0 0.55477,0.94297 1.15189,2.0955 0.59711,1.15252 1.16346,2.18011 1.25855,2.28354 0.38016,0.41346 1.29453,0.45711 1.7113,0.0817 0.11301,-0.10179 0.70957,-1.16578 1.32569,-2.36441 0.61612,-1.19864 1.13071,-2.16886 1.14353,-2.15604 0.0128,0.0128 0.029,1.31603 0.036,2.89602 l 0.0127,2.87271 -0.87642,0.59629 c -5.05429,3.43878 -9.29489,8.44613 -11.797,13.93002 -0.28683,0.62865 -0.57103,1.26682 -0.63157,1.41817 -0.0605,0.15134 -0.1544,0.27516 -0.2086,0.27516 -0.0542,0 -0.7118,-0.3043 -1.46133,-0.67624 z m -4.57456,-15.60092 c 0.12811,-0.095 0.14493,-0.396 0.16435,-2.94217 l 0.0216,-2.83633 1.1699,2.25885 c 0.80977,1.5635 1.23982,2.30563 1.397,2.4108 0.31011,0.20749 1.15893,0.20827 1.46813,10e-4 0.15485,-0.10363 0.57406,-0.82917 1.34404,-2.32614 0.61545,-1.19654 1.15236,-2.21173 1.19313,-2.25597 0.0425,-0.0461 0.0741,1.13498 0.0741,2.76986 0,2.73134 0.007,2.85394 0.16377,2.93793 0.23706,0.12688 1.80203,0.1125 1.97997,-0.0182 0.13326,-0.0979 0.14243,-0.47508 0.12201,-5.0165 l -0.0221,-4.91066 -1.13283,-0.0237 c -0.88139,-0.0185 -1.17469,0.004 -1.32145,0.0999 -0.1155,0.0757 -0.75285,1.24183 -1.64411,3.00821 -0.80052,1.58653 -1.47084,2.88461 -1.48961,2.88461 -0.0188,0 -0.6891,-1.29808 -1.48962,-2.88461 -0.89126,-1.76638 -1.52861,-2.93252 -1.64411,-3.0082 -0.14675,-0.0962 -0.44006,-0.11833 -1.32145,-0.0999 l -1.13282,0.0237 -0.0221,4.91067 c -0.0204,4.54141 -0.0112,4.91862 0.12202,5.0165 0.0929,0.0682 0.44872,0.10583 1.00073,0.10583 0.55275,0 0.90727,-0.0375 0.99936,-0.10583 z m 9.03364,-12.25551 c 0,-0.0931 -0.0549,-0.16933 -0.122,-0.16933 -0.14957,0 -0.2452,0.13933 -0.17433,0.254 0.0921,0.14898 0.29633,0.0906 0.29633,-0.0847 z m 0.25182,-1.73462 0.12918,-0.67482 0.33867,-0.0549 c 0.18627,-0.0302 0.51964,-0.0809 0.74083,-0.1128 0.3164,-0.0456 0.40217,-0.0918 0.40217,-0.2169 0,-0.12505 -0.0858,-0.17131 -0.40217,-0.21689 -0.22119,-0.0319 -0.55456,-0.0826 -0.74083,-0.1128 l -0.33867,-0.0549 -0.127,-0.65098 c -0.20083,-1.02943 -0.41887,-1.05523 -0.55033,-0.0651 -0.0871,0.6559 -0.1466,0.73362 -0.61148,0.79864 -0.93268,0.13044 -0.96553,0.14211 -0.93823,0.33347 0.0145,0.10144 -0.0483,0.24267 -0.14362,0.32308 -0.13527,0.11412 -0.15056,0.17374 -0.076,0.29634 0.12393,0.20382 0.40165,0.23753 0.544,0.066 0.0939,-0.11317 0.0949,-0.16928 0.006,-0.31227 -0.10684,-0.17108 -0.0989,-0.17323 0.42842,-0.11565 0.5494,0.06 0.74896,0.18922 0.74896,0.48506 0,0.0819 0.0417,0.34346 0.0927,0.58115 0.07,0.32625 0.1265,0.42565 0.23065,0.40559 0.0999,-0.0192 0.17367,-0.21303 0.26715,-0.70138 z m -2.34249,-1.32303 c 0.12688,-0.20251 0.009,-0.41368 -0.2308,-0.41368 -0.25831,0 -0.40705,0.22927 -0.29029,0.44745 0.0985,0.18414 0.39667,0.16482 0.52109,-0.0338 z m 12.20834,-0.87935 c 0,-0.22551 -0.0284,-0.254 -0.25284,-0.254 -0.1766,0 -0.26173,0.0462 -0.28233,0.15312 -0.0529,0.27462 0.0543,0.41019 0.30185,0.38172 0.19684,-0.0226 0.23332,-0.0666 0.23332,-0.28084 z m -3.13267,-2.24366 c 0,-0.24136 -0.26723,-0.34369 -0.34798,-0.13326 -0.077,0.20074 0.032,0.40347 0.19956,0.37119 0.0937,-0.0181 0.14842,-0.10573 0.14842,-0.23793 z m -5.06576,0.0358 c 0.0282,-0.0735 -0.0111,-0.19593 -0.0873,-0.27215 -0.12832,-0.12832 -0.14883,-0.12832 -0.27715,0 -0.1731,0.1731 -0.0936,0.40571 0.13858,0.40571 0.096,0 0.19771,-0.0601 0.2259,-0.13356 z m 8.53638,-1.07294 c 0.0271,-0.15134 0.0768,-0.44271 0.11053,-0.64748 0.0337,-0.20477 0.118,-0.40242 0.18738,-0.43921 0.0694,-0.0368 0.41189,-0.1169 0.76114,-0.17802 0.45861,-0.0802 0.635,-0.1464 0.635,-0.23812 0,-0.0917 -0.17639,-0.15787 -0.635,-0.23813 -0.34925,-0.0611 -0.69149,-0.14105 -0.76053,-0.17763 -0.0774,-0.041 -0.16051,-0.29904 -0.21674,-0.67288 -0.15366,-1.02161 -0.37041,-0.99363 -0.56131,0.0725 l -0.11368,0.63481 -0.66827,0.10183 c -1.09446,0.16677 -1.09735,0.37149 -0.008,0.55207 l 0.67733,0.11226 0.13891,0.67544 c 0.16566,0.80559 0.13134,0.71778 0.28059,0.71778 0.0724,0 0.14348,-0.11342 0.17245,-0.27517 z m -8.33895,0.017 c 0,-0.14443 -0.55534,-0.67314 -0.70705,-0.67314 -0.0768,0 -0.13962,-0.0381 -0.13962,-0.0847 0,-0.11659 -0.23028,-0.10687 -0.30427,0.0128 -0.0331,0.0536 -10e-4,0.14085 0.0714,0.19382 0.0724,0.053 0.14494,0.19006 0.16111,0.30466 0.0244,0.17279 0.0763,0.2082 0.30456,0.20753 0.15134,-4.3e-4 0.27516,0.0281 0.27516,0.0635 0,0.0354 0.0762,0.0643 0.16934,0.0643 0.0931,0 0.16933,-0.04 0.16933,-0.0889 z m 2.96333,-0.1228 c 0,-0.16934 -0.0423,-0.21167 -0.21166,-0.21167 -0.16934,0 -0.21167,0.0423 -0.21167,0.21167 0,0.16933 0.0423,0.21166 0.21167,0.21166 0.16933,0 0.21166,-0.0423 0.21166,-0.21166 z m 0.74704,-0.49385 c 0.0158,-0.0817 -0.0267,-0.14115 -0.10083,-0.14115 -0.15729,0 -0.25222,0.13802 -0.17778,0.25847 0.0766,0.12391 0.24563,0.0527 0.27861,-0.11732 z m 1.556,-0.69507 c 0.0837,-0.18377 0.0722,-0.24114 -0.0788,-0.39212 -0.23299,-0.23299 -0.59088,-0.15558 -0.66609,0.14409 -0.0694,0.27641 0.0925,0.46328 0.40135,0.46328 0.18074,0 0.2713,-0.0568 0.34352,-0.21525 z m -2.57397,-0.47902 c 0.25521,-0.25521 0.0288,-0.69888 -0.32959,-0.64573 -0.24825,0.0368 -0.36854,0.24682 -0.29933,0.52256 0.0441,0.17585 0.10767,0.22477 0.29187,0.22477 0.1295,0 0.28117,-0.0457 0.33705,-0.1016 z m 1.23767,-2.15112 c 0.17318,-0.0665 0.17343,-0.3621 3.4e-4,-0.42851 -0.0735,-0.0282 -0.19401,0.009 -0.26789,0.0831 -0.11072,0.11072 -0.11519,0.1574 -0.0254,0.26558 0.12477,0.15035 0.11569,0.14787 0.29293,0.0799 z m 10.80193,20.08076 c 0,-0.19661 0.0319,-0.21737 0.33367,-0.21737 0.38855,0 0.52564,0.13705 0.24292,0.24285 -0.54884,0.20541 -0.57659,0.20419 -0.57659,-0.0255 z m 0,-3.39369 v -1.33488 l 0.70384,0.0439 c 1.09867,0.0685 1.5008,0.35468 1.56365,1.11259 0.0795,0.95837 -0.40432,1.41548 -1.56245,1.47626 l -0.70504,0.037 z m 15.44026,2.28732 c 2.5e-4,-0.46566 0.0144,-0.64536 0.0316,-0.39933 0.0172,0.24604 0.017,0.62704 -4.2e-4,0.84667 -0.0174,0.21963 -0.0314,0.0183 -0.0312,-0.44734 z"
         id="path3749"
         inkscape:connector-curvature="0" />
    </g>
  </g>
</svg>
