<?xml version="1.0" standalone="no"?>
<!DOCTYPE svg PUBLIC "-//W3C//DTD SVG 20010904//EN"
 "http://www.w3.org/TR/2001/REC-SVG-20010904/DTD/svg10.dtd">
<svg version="1.0" xmlns="http://www.w3.org/2000/svg"
 width="700.000000pt" height="700.000000pt" viewBox="0 0 700.000000 700.000000"
 preserveAspectRatio="xMidYMid meet">
<metadata>
Created by potrace 1.11, written by Peter Selinger 2001-2013
</metadata>
<g transform="translate(0.000000,700.000000) scale(0.100000,-0.100000)"
fill="#000000" stroke="none">
<path d="M3210 6974 c-1281 -112 -2385 -901 -2906 -2074 -120 -273 -203 -562
-260 -915 -23 -136 -27 -201 -31 -440 -5 -264 -3 -291 22 -465 29 -203 44
-287 80 -430 129 -511 359 -965 699 -1380 38 -47 137 -153 220 -236 509 -509
1162 -848 1871 -969 300 -51 383 -58 639 -52 262 5 463 30 721 87 546 121
1076 389 1515 766 177 152 410 409 557 614 393 550 616 1212 648 1925 16 361
-64 863 -200 1253 -295 845 -930 1561 -1740 1962 -361 179 -683 277 -1095 336
-101 14 -633 27 -740 18z m635 -225 c557 -52 1156 -289 1625 -644 190 -145
492 -445 628 -625 327 -436 548 -953 633 -1485 26 -168 37 -615 20 -815 -46
-522 -250 -1081 -559 -1530 -465 -675 -1175 -1158 -1967 -1339 -275 -62 -312
-66 -725 -66 -359 0 -394 2 -515 23 -819 147 -1482 524 -1997 1137 -421 502
-691 1150 -748 1795 -12 143 -12 461 0 599 50 556 260 1130 576 1571 373 522
856 909 1439 1152 308 129 667 214 1000 238 128 9 432 4 590 -11z"/>
<path d="M3235 6284 c-171 -14 -425 -68 -625 -134 -309 -102 -622 -271 -880
-476 -118 -94 -351 -328 -448 -451 -321 -406 -519 -870 -589 -1378 -24 -180
-24 -598 1 -775 54 -390 183 -750 392 -1092 272 -447 686 -826 1159 -1059 88
-44 176 -82 195 -85 l36 -6 74 163 c341 746 849 1359 1510 1822 l135 94 3 44
c7 80 -10 751 -18 742 -5 -4 -67 -119 -138 -254 -194 -366 -204 -379 -294
-379 -75 0 -100 33 -293 395 -65 121 -121 224 -125 228 -4 5 -9 -156 -12 -358
-3 -351 -4 -368 -23 -382 -16 -11 -44 -14 -127 -11 -59 2 -110 7 -115 11 -10
10 -11 1232 -1 1242 12 12 241 18 269 7 32 -13 68 -73 274 -470 145 -280 158
-302 171 -283 8 11 90 168 182 348 93 180 180 347 195 371 l27 42 133 0 c72 0
139 -5 147 -10 13 -8 16 -85 20 -559 3 -302 7 -552 10 -554 3 -3 46 16 95 41
l90 47 3 511 c2 473 3 512 19 519 37 14 216 17 393 6 244 -14 323 -37 417
-124 53 -49 76 -92 93 -171 15 -72 7 -157 -22 -234 -21 -56 -84 -129 -158
-183 -33 -25 -34 -26 -13 -37 17 -9 56 -5 192 23 213 43 425 73 575 81 l116 7
0 -27 c0 -37 -27 -216 -47 -310 -13 -58 -30 -102 -65 -160 -27 -44 -51 -91
-54 -103 -6 -22 -4 -23 20 -13 23 8 26 7 26 -11 0 -31 -52 -179 -63 -179 -5 0
-25 14 -44 30 -28 25 -38 28 -53 20 -65 -35 -68 -207 -6 -259 27 -22 18 -58
-42 -185 -171 -356 -452 -798 -627 -986 -67 -72 -158 -190 -146 -190 15 0 133
90 206 158 280 260 479 528 677 912 128 249 220 597 248 935 19 231 18 575 -3
695 -129 757 -505 1383 -1102 1835 -372 281 -809 466 -1280 540 -97 16 -569
28 -690 19z m373 -316 c-6 -18 -28 -21 -28 -4 0 9 7 16 16 16 9 0 14 -5 12
-12z m567 -213 c10 -48 23 -78 33 -84 9 -4 47 -14 85 -21 37 -7 70 -16 73 -21
3 -5 2 -9 -3 -10 -4 0 -44 -8 -88 -17 l-80 -17 -20 -77 c-11 -43 -23 -78 -26
-78 -7 0 -29 87 -29 115 0 24 -48 53 -102 59 -53 7 -87 20 -77 30 3 3 39 12
79 20 41 7 79 20 85 29 6 8 17 45 24 81 7 36 17 66 21 66 4 0 16 -34 25 -75z
m-736 -39 c9 -11 10 -20 1 -36 -13 -24 -38 -23 -53 1 -23 37 25 68 52 35z
m331 -95 c0 -28 -28 -47 -48 -34 -24 15 -27 44 -7 59 22 17 55 1 55 -25z
m-726 -137 c8 -21 -1 -34 -25 -34 -14 0 -19 7 -19 25 0 29 34 36 44 9z m426
-34 c0 -5 -7 -10 -16 -10 -8 0 -12 5 -9 10 3 6 10 10 16 10 5 0 9 -4 9 -10z
m-407 -136 c11 -11 -3 -24 -18 -18 -8 4 -12 10 -9 15 6 11 18 12 27 3z m650
-27 c-3 -5 -9 -3 -14 4 -4 7 -5 17 -2 22 3 5 9 3 14 -4 4 -7 5 -17 2 -22z
m-863 -287 c18 -84 27 -93 112 -110 40 -8 73 -19 73 -25 0 -5 -20 -13 -45 -17
-100 -18 -118 -27 -129 -61 -5 -17 -13 -51 -16 -74 -4 -24 -11 -45 -15 -48 -5
-3 -16 28 -25 69 -9 41 -23 80 -30 86 -7 6 -43 16 -81 23 -95 17 -87 32 28 51
51 9 63 24 83 105 9 39 21 69 25 66 4 -2 13 -32 20 -65z m1263 24 c9 -10 -4
-34 -19 -34 -8 0 -14 9 -14 20 0 19 19 27 33 14z m-1566 -100 c3 -8 1 -20 -6
-27 -14 -14 -47 15 -37 32 10 16 36 13 43 -5z m72 -118 c17 -20 -13 -43 -34
-26 -12 10 -13 16 -4 26 6 8 15 14 19 14 4 0 13 -6 19 -14z m-946 -614 c37 -7
42 -13 89 -97 27 -49 117 -221 200 -383 83 -161 155 -289 159 -285 5 5 63 114
130 243 184 357 247 476 266 499 22 27 113 37 227 26 l76 -7 0 -623 0 -624
-46 -7 c-48 -7 -193 1 -203 12 -3 3 -7 159 -9 347 -1 188 -5 357 -8 376 l-5
34 -18 -29 c-10 -16 -71 -130 -136 -254 -134 -253 -177 -325 -204 -340 -33
-17 -136 -12 -159 8 -23 19 -71 103 -227 395 -60 114 -113 207 -116 207 -9 0
-19 -284 -19 -528 l0 -212 -27 -11 c-31 -12 -207 -8 -220 5 -4 4 -9 286 -11
626 l-2 619 37 4 c66 7 187 6 226 -1z"/>
<path d="M4990 3797 l0 -177 26 -6 c34 -9 140 4 183 22 54 22 78 51 91 106 17
68 8 133 -21 165 -41 43 -78 56 -181 61 l-98 5 0 -176z"/>
<path d="M4987 3393 c-9 -9 -9 -65 1 -80 5 -8 22 -6 62 10 63 25 76 51 35 67
-30 11 -88 13 -98 3z"/>
<path d="M5998 3345 c-125 -46 -258 -203 -258 -306 0 -70 71 -118 151 -103 97
18 258 145 299 236 34 76 23 146 -29 173 -36 18 -113 18 -163 0z m-78 -265 c0
-5 -7 -10 -15 -10 -8 0 -15 5 -15 10 0 6 7 10 15 10 8 0 15 -4 15 -10z"/>
<path d="M4997 3213 c-12 -11 -8 -23 7 -23 8 0 16 7 20 15 5 15 -14 21 -27 8z"/>
<path d="M4650 2999 c0 -5 5 -7 10 -4 6 3 10 8 10 11 0 2 -4 4 -10 4 -5 0 -10
-5 -10 -11z"/>
<path d="M4742 2848 c-30 -30 2 -93 36 -72 34 22 39 44 13 65 -27 22 -33 23
-49 7z"/>
<path d="M4192 2764 c-75 -52 -67 -186 13 -220 43 -18 59 -18 99 1 43 20 66
63 66 120 0 40 -5 52 -34 81 -28 28 -41 34 -78 34 -24 0 -54 -7 -66 -16z"/>
<path d="M4963 2733 c-17 -6 -16 -50 1 -56 17 -7 36 11 36 34 0 18 -18 29 -37
22z"/>
<path d="M5103 2550 c-12 -5 -29 -20 -39 -34 -34 -52 11 -136 73 -136 35 0 83
51 83 89 0 56 -65 101 -117 81z"/>
<path d="M4810 2486 c-6 -17 -6 -35 0 -51 12 -32 59 -34 86 -4 17 19 17 23 3
47 -21 39 -75 43 -89 8z"/>
<path d="M5491 2361 c-13 -13 -21 -34 -21 -54 0 -84 117 -97 135 -16 15 67
-67 117 -114 70z"/>
<path d="M3630 2330 c-24 -24 -26 -72 -4 -90 20 -18 74 -17 85 1 16 25 9 65
-14 87 -29 27 -41 28 -67 2z"/>
<path d="M5599 2237 c-41 -27 -51 -57 -19 -57 25 0 84 55 75 70 -9 15 -18 13
-56 -13z"/>
<path d="M4085 2193 c-64 -14 -198 -80 -268 -131 -67 -50 -149 -135 -164 -170
-24 -57 15 -79 100 -57 156 40 381 199 421 297 15 35 15 38 -6 52 -22 16 -43
18 -83 9z m-15 -99 c0 -8 -7 -14 -15 -14 -15 0 -21 21 -9 33 10 9 24 -2 24
-19z"/>
<path d="M4370 2071 c-50 -27 -82 -65 -78 -92 2 -13 11 -25 20 -27 43 -8 158
77 158 117 0 17 -6 21 -32 21 -18 -1 -49 -9 -68 -19z"/>
<path d="M4085 1944 c-28 -19 -89 -58 -137 -85 -48 -28 -90 -55 -94 -60 -12
-20 7 -22 59 -6 77 25 176 87 209 131 48 67 37 73 -37 20z"/>
<path d="M4510 1967 c-50 -26 -70 -42 -70 -54 0 -30 91 0 104 33 10 26 -6 35
-34 21z"/>
<path d="M4863 1935 c-11 -8 -24 -26 -27 -41 -4 -14 -18 -43 -32 -64 -31 -47
-27 -66 28 -120 45 -46 71 -50 135 -21 47 22 103 91 103 128 0 32 -13 29 -45
-12 -29 -39 -98 -89 -114 -83 -6 1 4 33 24 71 40 78 43 109 15 137 -24 24 -57
26 -87 5z"/>
<path d="M3425 1826 c-20 -30 -7 -62 30 -76 50 -19 82 12 73 71 -2 20 -10 24
-45 27 -35 3 -44 -1 -58 -22z"/>
<path d="M5410 1771 c-17 -32 -12 -50 16 -57 35 -9 59 15 50 50 -8 32 -50 36
-66 7z"/>
<path d="M4040 1656 c-55 -21 -109 -56 -115 -75 -3 -9 -21 -23 -40 -30 -63
-22 -100 -101 -70 -147 16 -25 21 -26 79 -22 143 12 326 148 326 242 0 15 -8
30 -19 36 -27 14 -118 11 -161 -4z m-100 -191 c0 -8 -4 -15 -10 -15 -5 0 -10
7 -10 15 0 8 5 15 10 15 6 0 10 -7 10 -15z"/>
<path d="M3243 1515 c-43 -30 -38 -117 8 -140 42 -22 77 -18 104 11 35 38 34
95 -1 123 -31 24 -81 27 -111 6z"/>
<path d="M4208 1451 c-32 -26 -94 -66 -138 -90 -96 -51 -110 -66 -51 -58 57 7
179 66 218 105 35 35 60 92 40 91 -7 0 -38 -21 -69 -48z"/>
<path d="M4428 1330 c-19 -15 -21 -22 -12 -37 13 -21 52 -29 66 -15 14 14 2
58 -16 65 -8 3 -25 -2 -38 -13z"/>
<path d="M3137 1018 c-34 -72 -67 -151 -67 -159 0 -30 64 25 82 71 37 91 23
169 -15 88z"/>
<path d="M3839 1027 c-50 -42 -62 -96 -35 -162 30 -72 142 -82 199 -17 13 14
19 38 20 77 1 54 -1 59 -36 91 -46 42 -106 47 -148 11z"/>
<path d="M3304 999 c-17 -19 -17 -23 -3 -47 16 -30 66 -43 80 -20 13 19 11 62
-3 76 -18 18 -53 14 -74 -9z"/>
<path d="M4633 896 c-15 -13 -25 -27 -22 -30 9 -9 99 31 99 44 0 19 -49 10
-77 -14z"/>
</g>
</svg>
